<svg version="1.1" id="Layer_1" xmlns="http://www.w3.org/2000/svg" xmlns:xlink="http://www.w3.org/1999/xlink" x="0px" y="0px"
	 viewBox="0 0 424.7 267" style="enable-background:new 0 0 424.7 267;" xml:space="preserve">
<style type="text/css">
	.st0{fill-rule:evenodd;clip-rule:evenodd;fill:#f1f1f1;}
	.st1{fill:#f1f1f1;}
</style>
<g id="layer1" transform="translate(-49.603706,-128.28466)">
	<g id="g22" transform="matrix(0.26458333,0,0,0.26458333,15.022665,41.369034)">
		<path id="path12" class="st0" d="M648.1,829.4h-45.5l18.1-63.3c4-13.9,5.1-23.4,5.1-23.4h0.6c0,0,0.8,9.9,4.4,23.4L648.1,829.4z
			 M671.9,897.3L671.9,897.3c-3.6,0-6.5-2.3-7.4-5.5v-0.2l-10.3-35.8h-58.4l-10.8,35.8c-0.8,3.2-4,5.7-7.4,5.7h-0.2h-24.2l0,0
			c-4.2,0-7.8-3.6-7.8-7.8c0-0.8,0.2-1.5,0.4-2.3v-0.2l58.2-178.4c0.8-3.4,4-5.7,7.6-5.7H645c3.4,0,6.3,2.3,7.4,5.3l58,178.6
			c0.2,0.8,0.4,1.7,0.4,2.5c0,4.2-3.4,7.8-7.6,7.8l0,0h-31.2V897.3z M715.2,702.7c0-3.2,1.9-5.7,4.4-7l24.7-12.9
			c1.3-0.8,3.4-1.5,5.1-1.5c4.2,0,7.8,3.4,7.8,7.8c0,0.2,0,162.6,0,162.6c0.2,9.7,8.6,17.3,18.3,17.3c4.2,0,7.8,3.4,7.8,7.8v12.7
			c0,4.2-3.4,7.8-7.8,7.8h-3.4h-5.3c-28.7,0-51.9-23.2-51.9-51.9V703.1v-0.4L715.2,702.7z M907.5,754.7c2.7,1.3,4.6,4,4.6,7.2l0,0
			v133.7c0,42.4-26.4,62.8-65.2,64.3c-18.8,0.8-34.6-3.6-47.7-9.3l0,0c-3-1.3-4.8-4-4.8-7.4c0-1.1,0.2-1.9,0.4-2.7l4.2-10.8
			c1.1-3.2,4-5.5,7.6-5.5c1.1,0,2.1,0.2,3,0.6l0,0c8.4,3.2,18.8,5.5,29.5,5.5c22.8,0,31-10.8,31-27.8v-8.2
			c-5.1,2.7-13.5,4.6-25.9,4.6c-35.6,0-61.4-27.4-61.4-71.9c0-49.8,25.5-81,76.5-81C879,746.1,896.1,749.7,907.5,754.7
			C907.2,754.7,907.5,754.7,907.5,754.7z M869.9,870.7c-3.6,2.3-9.3,3.6-15,3.6c-21.5,0-30.4-16-30.4-49.8
			c0-35.6,9.1-53.6,31.2-53.6c5.9,0,10.8,0.8,14.1,2.5V870.7z M1014.1,876v-56.7c-24.5-1.9-44.7,7.2-44.7,30.6
			c0,17.3,10.3,27.6,28.3,27.6C1009.3,877.5,1014.1,876,1014.1,876L1014.1,876z M1056.3,825.6v45.8v12c0,3.2-1.9,5.9-4.8,7.2h-0.2
			c-13.1,5.1-32.7,8.6-55.9,8.6c-44.9,0-68.7-16.2-68.7-47c0-38.2,31.4-55.7,87.3-52.9c-1.3-14.8-9.9-23.8-30.8-23.8
			c-10.8,0-21.1,2.3-29.5,5.5l0,0c-0.8,0.4-1.9,0.6-3,0.6c-3.6,0-6.5-2.3-7.6-5.5l-4.2-10.8c-0.4-0.8-0.4-1.7-0.4-2.7
			c0-3.4,2.1-6.1,4.8-7.4l0,0c12.9-5.7,28.7-10.1,47.7-9.3c38.8,1.5,65.2,21.9,65.2,64.3v15.4L1056.3,825.6z M1077.2,765.1
			c0-6.1,4.2-11,9.7-12.9c14.3-4.8,33.1-7.4,61.4-6.5h0.2c4.2,0,7.8,3.4,7.8,7.8l0,0V764c0,4.2-3.6,7.8-7.8,7.8c-0.2,0-0.6,0-0.8,0
			c-10.3-0.8-23,1.3-28.5,3.8v113.9v0.2c-0.2,4.2-3.6,7.6-7.8,7.6h-0.2H1085l0,0c-4.2,0-7.8-3.4-7.8-7.8c0-0.2,0-0.4,0-0.4V765.1z"
			/>
		<path id="path14" class="st1" d="M1187.5,753.7c0-2.5,1.5-5.1,3.8-6.5c2.5-1.5,5.7-1.3,8,0.2l45.1,25.9l0,0
			c2.3,1.5,3.8,3.8,3.8,6.5c0,3-1.7,5.5-4.2,7c0,0-44.9,25.9-45.1,26.1l0,0c-2.3,1.3-5.3,1.3-7.6,0c-2.5-1.5-4-4.2-3.8-7v-21.3
			L1187.5,753.7z"/>
		<path id="path16" class="st1" d="M1259.8,795.2c0-2.5,1.5-5.1,3.8-6.5c2.5-1.5,5.7-1.3,8,0.2l45.1,25.9l0,0
			c2.3,1.3,3.8,3.8,3.8,6.5c0,3-1.7,5.5-4.2,7c0,0-44.9,25.9-45.1,25.9l0,0c-2.3,1.3-5.3,1.3-7.6-0.2c-2.5-1.5-4-4.2-3.8-7V795.2z"
			/>
		<path id="path18" class="st1" d="M1187.5,837c0-2.5,1.5-5.1,3.8-6.5c2.5-1.5,5.7-1.3,8,0.2l45.1,25.9l0,0c2.3,1.3,3.8,3.8,3.8,6.5
			c0,3-1.7,5.7-4.2,7c0,0-44.9,25.9-45.1,25.9l0,0c-2.3,1.3-5.3,1.3-7.6-0.2c-2.5-1.5-4-4.2-3.8-7v-21.3L1187.5,837z"/>
		<path id="path20" class="st1" d="M1054.6,932.5v-9.7h-36.1v9.7h10.8v51.4h14.5v-51.4H1054.6z M1083.1,955.5l-16.9,2.5
			c-0.4-9.9,3.2-14.8,8.9-14.8C1080.3,943.2,1083.1,947,1083.1,955.5z M1096.2,960.5c0.6-16.2-6.5-25.5-20.5-25.5
			s-21.7,9.7-21.7,24.7c0,15.2,8.4,24.9,23.4,24.9c8.2,0,13.5-1.7,17.3-3.4l-3.2-8.6c-2.5,1.3-7,2.5-12.7,2.5
			c-7.2,0-10.8-3.4-11.6-10.5L1096.2,960.5z M1116.8,914.1h-14.1v69.6h13.9v-69.6H1116.8z M1152.7,955.5l-16.9,2.5
			c-0.4-9.9,3.2-14.8,8.9-14.8C1149.9,943.2,1152.7,947,1152.7,955.5z M1165.7,960.5c0.6-16.2-6.5-25.5-20.5-25.5
			c-13.9,0-21.7,9.7-21.7,24.7c0,15.2,8.4,24.9,23.4,24.9c8.2,0,13.5-1.7,17.3-3.4l-3.2-8.6c-2.5,1.3-7,2.5-12.7,2.5
			c-7.2,0-10.8-3.4-11.6-10.5L1165.7,960.5z M1202.2,981.2l-3-8.4c-1.5,1.3-3.2,1.9-5.9,1.9c-5.5,0-8.9-5.7-8.9-15.2
			c0-9.7,3-15.2,9.1-15.2c2.7,0,4.4,0.8,5.7,1.9l3-7.6c-2.1-1.7-5.9-3.4-11.8-3.4c-10.8,0-19.8,8.4-19.8,24.7
			c0,16,8.4,24.9,19.8,24.9C1196.3,984.6,1200.1,983.1,1202.2,981.2L1202.2,981.2z M1232.6,959.7c0,8.6-1.3,15.6-7.4,15.6
			s-7.4-7-7.4-15.6c0-8.4,1.3-16,7.4-16S1232.6,951,1232.6,959.7z M1246.5,959.9c0-14.3-7.4-24.7-21.5-24.7
			c-13.9,0-21.3,10.5-21.3,24.7s7.4,24.9,21.3,24.9C1239.1,984.8,1246.5,974,1246.5,959.9z M1321.1,983.7v-33.5
			c0-8.4-5.9-15.2-17.3-15.2c-8,0-12.9,2.1-16,4.8c-2.7-2.7-7.4-4.8-15.4-4.8c-8.4,0-14.1,1.1-19.6,3.6v45.1h13.9v-39.2
			c1.7-0.6,3.2-0.8,5.7-0.8c4.8,0,7.6,2.5,7.6,6.3v33.7h13.9V946c1.7-1.7,3.6-2.3,6.1-2.3c4.8,0,7,2.7,7,6.5v33.5L1321.1,983.7z"/>
	</g>
</g>
</svg>
