<?xml version="1.0" encoding="utf-8"?>
<!-- Generator: Adobe Illustrator 24.3.0, SVG Export Plug-In . SVG Version: 6.00 Build 0)  -->
<svg version="1.1" id="Layer_1" xmlns="http://www.w3.org/2000/svg" xmlns:xlink="http://www.w3.org/1999/xlink" x="0px" y="0px"
	 viewBox="0 0 424.7 267" style="enable-background:new 0 0 424.7 267;" xml:space="preserve">
<style type="text/css">
	.st0{fill:#f1f1f1;}
</style>
<g>
	<g>
		<path class="st0" d="M230,127.3c0.8,0.3,1.6,0.7,2.3,1.1c3.7,2.2,5.3,5.6,4.9,9.8c-0.4,5.4-3.5,9-8.2,11.2
			c-3.1,1.5-6.5,2.2-9.9,2.5c-2.1,0.2-4.3,0.2-6.4,0.2c-7.6,0-15.3,0-22.9,0c-0.2,0-0.4,0-0.7,0c4.4-16.5,8.8-32.9,13.3-49.4
			c0.2,0,0.4,0,0.6,0c6.8,0,13.6,0,20.3,0c3.6,0,7.1,0.4,10.4,1.8c2.4,1,4.4,2.4,5.7,4.8c2.4,4.2,1.5,10.2-2,13.8
			c-2,2-4.4,3.3-7.2,4.1c-0.1,0-0.2,0.1-0.4,0.1C230.1,127.2,230,127.2,230,127.3z M205.6,141.1c0.3,0,0.5,0,0.7,0
			c3.3,0,6.6,0,9.8,0c0.8,0,1.6-0.1,2.5-0.2c1.5-0.3,2.9-0.9,4-2.1c2-2.4,1.1-5.4-1.9-6.3c-0.8-0.2-1.6-0.4-2.4-0.4
			c-3.1,0-6.2,0-9.3,0c-0.3,0-0.6,0-1,0C207.2,135.1,206.4,138.1,205.6,141.1z M210.6,122.5c3.2,0,6.3,0,9.3,0
			c1.2,0,2.5-0.1,3.7-0.5c1.4-0.5,2.6-1.2,3.3-2.6c0.9-1.9,0.4-3.8-1.2-4.7c-0.8-0.5-1.7-0.7-2.7-0.8c-3.4-0.2-6.7,0-10.1-0.1
			C212.1,116.7,211.4,119.5,210.6,122.5z"/>
		<path class="st0" d="M277.4,127.2c0.8,0.3,1.5,0.6,2.1,1c3.9,2.2,5.6,5.6,5.2,10c-0.5,5.4-3.5,8.9-8.2,11.2
			c-3.1,1.5-6.4,2.2-9.8,2.5c-2.1,0.2-4.2,0.2-6.3,0.2c-7.7,0-15.4,0-23,0c-0.2,0-0.4,0-0.7,0c4.4-16.5,8.8-32.9,13.3-49.3
			c0.2-0.1,0.4-0.1,0.6-0.1c6.8,0,13.6,0,20.5,0c3.3,0,6.6,0.4,9.8,1.5c2.2,0.8,4.2,2,5.6,3.9c1.8,2.4,2.3,5.1,1.9,7.9
			c-0.7,5.5-4.1,8.7-9.1,10.5c-0.3,0.1-0.6,0.2-0.9,0.3C278.1,127.1,277.8,127.1,277.4,127.2z M255.5,132c-0.8,3.1-1.6,6-2.5,9.1
			c0.3,0,0.4,0,0.6,0c3.3,0,6.6,0,10,0c1,0,1.9-0.1,2.9-0.3c1.6-0.4,3.1-1.1,3.9-2.7c1.4-2.3,0.4-4.8-2.2-5.6
			c-0.5-0.2-1.1-0.3-1.6-0.3C262.9,131.9,259.2,132.1,255.5,132z M260.4,113.8c-0.8,2.9-1.5,5.8-2.3,8.7c0.1,0,0.2,0,0.3,0
			c3,0,5.9,0,8.9,0c1.2,0,2.3-0.1,3.5-0.4c1.4-0.4,2.7-1,3.5-2.3c1.4-2.3,0.5-4.7-2.1-5.5c-0.6-0.2-1.2-0.3-1.8-0.3
			C267,113.7,263.7,113.8,260.4,113.8z"/>
		<path class="st0" d="M121,100c4.3-3.7,10-4.6,14.9-0.5c2.1-1.6,4.4-2.6,7-2.7c2.7-0.1,5,0.9,7.1,2.6c0.9-0.6,1.8-1.2,2.7-1.7
			c4.1-1.8,7.8-1.2,11.2,1.6c0.4,0.3,0.8,0.7,1.2,1.1c4.5,4.5,9,9,13.5,13.5c0.8,0.8,1.1,1.7,0.7,2.8c-0.3,1-1,1.6-2,1.9
			c-1,0.2-1.9-0.1-2.6-0.8c-4.4-4.5-8.9-8.9-13.4-13.4c-0.6-0.6-1.2-1.1-1.9-1.5c-1.8-1-3.8-0.8-5.5,0.4c0.1,0.2,0.3,0.3,0.4,0.5
			c6.2,6.2,12.5,12.5,18.7,18.7c0.8,0.8,1.1,1.8,0.7,3c-0.4,1.1-1.2,1.7-2.4,1.8c-0.9,0.1-1.6-0.2-2.2-0.8c-2.9-2.9-5.8-5.8-8.7-8.7
			c-4.4-4.4-8.9-8.9-13.3-13.3c-0.4-0.4-0.9-0.8-1.4-1.2c-1.9-1.4-4.1-1.3-6.1,0.2c0.1,0.1,0.3,0.3,0.4,0.4
			c9.1,9.1,18.1,18.1,27.2,27.2c1.6,1.6,1,4.1-1.1,4.7c-0.9,0.2-1.8,0-2.6-0.6c-0.1-0.1-0.3-0.3-0.4-0.4
			c-10.1-10.1-20.3-20.3-30.5-30.4c-1-1-2.1-1.9-3.6-2c-1.3-0.1-2.4,0.3-3.4,0.9c-0.3,0.2-0.6,0.4-1.1,0.8c0.2,0.2,0.4,0.3,0.6,0.4
			c11.8,11.8,23.6,23.6,35.4,35.4c1.2,1.2,1.3,2.9,0.1,4.1c-1,0.9-2.4,1-3.5,0.3c-0.2-0.2-0.5-0.4-0.7-0.6
			c-13.1-13.1-26.1-26.1-39.2-39.2c-0.7-0.7-1.6-1.4-2.5-1.8c-1.8-0.8-3.4-0.4-5,0.5c-1.4,0.8-2.5,1.9-3.5,3.2
			c-5.4,7.9-10.8,15.7-16.1,23.6c-0.8,1.2-1.9,1.7-3.2,1.4c-1.8-0.5-2.6-2.6-1.5-4.2c2.1-3.2,4.3-6.3,6.5-9.5
			c3.5-5.1,6.9-10.3,10.6-15.4c2.4-3.3,5.7-5.2,9.8-5.5c3.1-0.2,5.8,1,8.1,3C120.7,99.8,120.8,99.9,121,100z"/>
		<path class="st0" d="M112.4,159.9c-0.3-0.2-0.5-0.3-0.6-0.4c-6.2-6.2-12.5-12.5-18.7-18.7c-0.8-0.8-1.1-1.8-0.7-2.9
			c0.4-1.1,1.2-1.7,2.3-1.9c0.9-0.1,1.7,0.2,2.3,0.9c1.9,1.9,3.7,3.7,5.6,5.6c5.5,5.5,11,11,16.6,16.6c1,1,2.1,1.8,3.5,2
			c1.4,0.2,2.6-0.4,3.8-1.1c-0.1-0.3-0.3-0.4-0.5-0.6c-9-9-18-18-27-27c-0.8-0.8-1.3-1.8-0.9-3c0.5-1.9,2.9-2.6,4.4-1.3
			c0.1,0.1,0.3,0.3,0.4,0.4c10.2,10.2,20.3,20.3,30.5,30.5c0.5,0.5,1,1,1.6,1.3c1.4,0.9,2.9,1,4.4,0.3c0.7-0.3,1.4-0.7,2-1.2
			c-0.1-0.2-0.3-0.4-0.4-0.5c-11.8-11.8-23.6-23.6-35.4-35.4c-1.2-1.2-1.3-3-0.1-4.1c1-0.9,2.6-1,3.6-0.1c0.2,0.2,0.4,0.4,0.6,0.6
			c13,13,26.1,26.1,39.1,39.1c1.2,1.1,2.4,2.1,4.1,2.2c1.6,0.1,2.9-0.5,4.2-1.3c1-0.7,1.8-1.5,2.5-2.5c5.5-8,11-16,16.5-24.1
			c0.9-1.3,2.6-1.7,3.9-0.8c1.3,0.9,1.6,2.6,0.7,3.9c-5.7,8.3-11.3,16.7-17.1,24.9c-2.2,3.2-5.5,5-9.5,5.4c-3.1,0.3-5.8-0.9-8.1-2.9
			c-0.4-0.4-0.6-0.3-1.1,0c-2.1,1.7-4.5,2.8-7.3,2.8c-2.4,0-4.5-0.8-6.4-2.2c-0.5-0.4-0.8-0.4-1.3,0c-2.1,1.5-4.4,2.4-7.1,2.3
			c-2.2-0.1-4.1-0.9-5.9-2.3c-0.3-0.3-0.6-0.3-1,0c-2.1,1.5-4.4,2.4-7.1,2.3c-2.6-0.1-4.8-1.2-6.7-2.9c-1-0.9-1.9-1.8-2.8-2.8
			c-3.9-3.9-7.7-7.7-11.6-11.6c-1.5-1.5-0.9-4.1,1.2-4.6c1.1-0.3,2,0,2.7,0.8c4.5,4.5,9,9,13.4,13.4c0.9,0.9,1.9,1.7,3.3,2
			C109.8,161.4,111,160.9,112.4,159.9z"/>
		<path class="st0" d="M332.7,143.9c-1.1,1.2-2.2,2.3-3.4,3.3c-5.2,4.3-11.4,6.1-18.1,5.9c-4.1-0.1-8-0.9-11.6-2.8
			c-5.9-3.1-9.5-7.9-10.5-14.5c-1.4-8.7,1.1-16.4,6.6-23.1c5-6.1,11.6-9.6,19.4-10.7c4.7-0.6,9.3-0.4,13.8,1.4
			c5.1,2,8.6,5.6,10.7,10.6c0,0.1,0,0.1,0.1,0.3c-3.9,2.1-7.9,4.2-11.8,6.3c-0.4-0.6-0.7-1.2-1.1-1.8c-2.2-3.2-5.2-4.7-9-4.6
			c-5.1,0.1-8.9,2.6-11.7,6.7c-2.3,3.4-3.2,7.1-2.8,11.2c0.5,4.9,4.4,8.4,9.3,8.5c4.1,0.1,7.5-1.6,10.4-4.3c0.1-0.1,0.2-0.2,0.4-0.3
			c0.1-0.1,0.2-0.2,0.3-0.3C323.8,136,331.5,142.7,332.7,143.9z"/>
		<path class="st0" d="M275.7,160.9c1.4,0.1,2.8-0.1,4.2,0.1c2.4,0.4,3.9,2.1,3.9,4.5c0,2.3-1.5,4-3.8,4.5c-1.4,0.3-2.8,0-4.3,0.1
			C275.7,167,275.7,164,275.7,160.9z M277,169c0.9,0,1.7,0,2.5-0.1c1.7-0.3,2.8-1.5,2.9-3.2c0.1-1.7-0.8-3-2.5-3.5
			c-0.9-0.3-1.9-0.2-2.9-0.2C277,164.3,277,166.6,277,169z"/>
		<path class="st0" d="M300.1,166.2c-0.7,0-1.4,0-2,0c0-0.4-0.1-0.7,0-1c1.1,0,2.2,0,3.3,0c0,1.4,0,2.8,0,4.2c0,0.2-0.1,0.3-0.2,0.3
			c-2,0.8-4,1.1-5.9,0c-1.8-1-2.6-3.3-2-5.5c0.5-2,2.3-3.4,4.4-3.4c1.7,0,2.7,0.3,3.7,1.2c-0.3,0.3-0.6,0.6-0.9,0.9
			c-1.6-1.2-3.3-1.3-4.6-0.3c-1.3,1-1.8,2.9-1.1,4.5c0.6,1.5,2.1,2.3,3.8,2.1c1.5-0.2,1.5-0.2,1.5-1.7
			C300.1,167,300.1,166.6,300.1,166.2z"/>
		<path class="st0" d="M328.5,170c-0.5,0-0.9,0-1.4,0c-0.3-0.6-0.5-1.2-0.8-1.9c-0.1-0.2-0.2-0.4-0.5-0.4c-1.2,0-2.4,0-3.7,0
			c-0.2,0-0.4,0.1-0.4,0.3c-0.2,0.5-0.4,1-0.6,1.5c-0.1,0.4-0.3,0.5-0.7,0.4c-0.3,0-0.6,0-1,0c0.5-1,0.9-2,1.3-3
			c0.8-1.9,1.7-3.9,2.5-5.8c0.2-0.4,0.4-0.4,0.7-0.3c0.3,0,0.6-0.2,0.8,0.3c1.2,2.8,2.4,5.7,3.6,8.5
			C328.5,169.8,328.5,169.9,328.5,170z M325.7,166.7c-0.6-1.4-1.1-2.8-1.7-4.2c-0.6,1.5-1.1,2.8-1.7,4.2
			C323.5,166.7,324.6,166.7,325.7,166.7z"/>
		<path class="st0" d="M315,170c-0.5,0-0.9,0-1.3,0c0-2.7,0-5.3,0-8c-1,0-1.9,0-2.9,0c0-0.4,0-0.7,0-1.1c2.4,0,4.7,0,7.1,0
			c0.1,0.3,0,0.7,0,1c-1,0-1.9,0-2.9,0C315,164.7,315,167.3,315,170z"/>
		<path class="st0" d="M333.4,168.9c1.4,0,2.7,0,4.1,0c0,0.4,0,0.8,0,1.1c-1.8,0-3.5,0-5.3,0c0-3,0-6,0-9.1c0.4,0,0.8,0,1.3,0
			C333.4,163.6,333.4,166.2,333.4,168.9z"/>
		<path class="st0" d="M287.8,160.9c0.4,0,0.8,0,1.2,0c0,3,0,6,0,9.1c-0.4,0.1-0.8,0-1.2,0C287.8,167,287.8,164,287.8,160.9z"/>
		<path class="st0" d="M307.2,170c-0.4,0-0.8,0-1.2,0c0-3,0-6,0-9.1c0.4,0,0.8,0,1.2,0C307.2,164,307.2,167,307.2,170z"/>
	</g>
</g>
</svg>
