<?xml version="1.0" encoding="utf-8"?>
<!-- Generator: Adobe Illustrator 24.3.0, SVG Export Plug-In . SVG Version: 6.00 Build 0)  -->
<svg version="1.1" id="Layer_1" xmlns="http://www.w3.org/2000/svg" xmlns:xlink="http://www.w3.org/1999/xlink" x="0px" y="0px"
	 viewBox="0 0 424.7 267" style="enable-background:new 0 0 424.7 267;" xml:space="preserve">
<style type="text/css">
	.st0{fill:#f1f1f1;}
</style>
<g>
	<path class="st0" d="M224.3,82.2c-0.7-0.8-1.6-1.2-2.8-1.2c-1.2,0-2.2,0.4-3.1,1.2c-0.8,0.7-1.4,1.5-1.7,2.5h8.5
		C225.3,83.7,225,82.9,224.3,82.2z"/>
	<path class="st0" d="M191.8,91.6c5.4,0.3,7.1-9.8,1.8-10.1C188.5,81.2,187,91.3,191.8,91.6z"/>
	<path class="st0" d="M178.6,105.3c-0.4-0.2-0.8-0.4-1.3-0.5c-0.5-0.1-1.1-0.1-1.7-0.1h-2.7l-1.1,6.2h2.8c0.7,0,1.4-0.1,2.1-0.2
		c0.6-0.1,1.2-0.3,1.6-0.6c0.4-0.3,0.8-0.6,1-1c0.3-0.4,0.4-0.9,0.4-1.6c0-0.6-0.1-1-0.3-1.4C179.2,105.8,178.9,105.5,178.6,105.3z"
		/>
	<path class="st0" d="M156.1,62.4v112.7h112.5V62.4H156.1z M215.8,81.1c1.7-1.8,3.7-2.8,6.1-2.8c1.9,0,3.5,0.6,4.6,1.9
		c1.1,1.3,1.7,3,1.7,5.1c0,0.6,0,1.1-0.1,1.7h-11.9c0,1.3,0.3,2.4,1.1,3.2c0.8,0.8,1.8,1.3,3.3,1.3c1.4,0,3-0.3,4.8-0.9l0.4,2.4
		c-1.8,0.7-3.7,1.1-5.5,1.1c-2.1,0-3.8-0.6-5.1-1.9c-1.2-1.2-1.8-2.8-1.8-4.7C213.3,85.1,214.2,83,215.8,81.1z M217.5,117.7
		c0,2.6-2.8,4.9-6.3,4.9c-2.8,0-4.4-1.1-5.1-1.5c0.3-0.4,1.1-1.9,1.2-2.2c0.9,0.6,2.1,1.3,3.7,1.3c1.8,0,3.1-0.9,3.1-2.2
		c0-2.6-5.9-2-5.9-6.2c0-2.1,2-4.8,6.1-4.8h0c2.5,0,3.9,0.8,4.2,1c-0.2,0.4-1.1,2-1.2,2.3c-0.7-0.3-1.3-1-3.3-1
		c-1.3,0-2.5,0.9-2.5,1.9C211.5,113.8,217.5,113.3,217.5,117.7z M204.7,82.6c0.1-0.4,0.2-0.9,0.3-1.5c0.1-0.6,0.2-1.1,0.2-1.6
		c0,0,3-0.4,3,2.4h0v0c0.5-0.8,1.1-1.5,1.8-2c0.7-0.5,1.5-0.8,2.5-0.8c0.1,0,0.3,0,0.5,0c0.2,0,0.3,0,0.4,0.1l-0.5,3.3
		c-0.2-0.1-0.4-0.1-0.6-0.1c-0.2,0-0.3,0-0.5,0c-0.8,0-1.5,0.2-2,0.5c-0.5,0.3-0.9,0.7-1.3,1.1c-0.3,0.4-0.5,0.9-0.7,1.3
		c-0.1,0.4-0.2,0.8-0.3,1.1l-1.3,7.7h-3.5L204.7,82.6z M197.3,120.1c2.7,0,3.7-1.4,4-3.4c0.2-0.9,1.6-9.1,1.6-9.1h1
		c1,0,2.3,0.6,2.1,2.2c-0.1,0.5-1.1,6-1.3,7c-0.6,3.2-2.6,6-7.8,6c-3,0-5.5-1.7-5.8-4.5c-0.1-0.5,0-1.4,0.1-2.2
		c0.4-2.1,1.3-7.3,1.5-8.6h0.9c1.1,0,2.5,0.6,2.2,2.2c-0.1,0.5-1.1,6.4-1.2,7.3C194.3,119.2,195.8,120.1,197.3,120.1z M193.2,79.1
		c2.6,0,4.2,1.4,4.8,2.5l0.4-2.2h3.1L199,93.9H198c-1.1,0-2.2-0.8-1.9-2.2l0-0.2c-0.9,1.4-2.4,2.7-5.3,2.7c-3,0-6-2.7-5.4-7.3
		C185.9,82.9,188.6,79.1,193.2,79.1z M190.3,104.1l-3.3,18.5h-3.4l3.7-20.8c0.2,0,0.2,0,0.8,0C189.5,101.8,190.5,102.8,190.3,104.1z
		 M178.4,72.8c3.2,0,5.9,1.2,7.6,3.3l-3.3,2.2c-0.9-1.4-3.1-2.5-5.3-2.3c-7.9,0.5-9.8,15.9-0.9,15.3c1.5-0.1,3.4-1,4.4-1.9l3.5,1.7
		c-1.9,1.9-4.8,3.4-8.7,3.4c-5,0-8.8-2.7-9.1-9.1C166.3,78.8,171.7,72.8,178.4,72.8z M178.2,113.6c-1.1,0.3-2.3,0.4-3.6,0.4h-3.2
		l-1.4,8.5c0,0-3.7,0.2-3.2-2.5s3.2-18.4,3.2-18.4h6.4v0c2.3,0,4.1,0.5,5.4,1.5c1.2,1,1.9,2.4,1.9,4.1c0,1.2-0.2,2.2-0.6,3.1
		c-0.4,0.9-1,1.6-1.8,2.1C180.2,113,179.3,113.4,178.2,113.6z M259.4,131.7c-0.3,0-1.1,0-1.9,0c-1.3,0-3.1-0.1-4.5-0.5
		c-2.1-0.6-4-1.7-5.1-2.5c-0.2-0.2-0.4-0.3-0.6-0.4c-1.1-0.7-1.8-0.7-2.4,0c-0.4,0.5-1.9,2.6-3.2,4.6c-0.5,0.8-1,1.5-1.4,2.1
		c-0.8,1.1-1.8,1.9-2.8,1.9c-0.8,0-1.4-0.5-1.8-1.5c-0.7-1.8-1.2-19.3-1.4-29.3v0c0-0.2-0.1-0.3-0.3-0.3c-0.1,0-0.3,0.1-0.3,0.3
		c0,0-0.1,0.2-0.2,0.7c-2.3,9.9-7.7,33.4-8.6,36.3c-0.7,2.1-1.9,3.5-3,3.5c-0.8,0-1.4-0.6-1.9-1.8c-1-2.5-1.7-6.1-2.2-8.5
		c-0.2-0.7-0.3-1.3-0.4-1.8c-0.2-0.9-0.5-1.5-1.1-1.5c-0.4,0-1,0.3-1.7,0.9c-1.5,1.1-4.1,2.7-6.8,2.7H181l0.6-3.4h25.5
		c2.6,0,4.2-1.4,5.6-2.6c0.5-0.4,0.9-0.8,1.4-1.1c2.2-1.4,3.9-1.3,5.2,0.4c1.1,1.5,1.6,4.2,2.2,7.4c0.2,1,0.4,2.2,0.6,3.2
		c0.1,0.3,0.4,0.3,0.4,0c2.1-10.2,6.9-30.4,9.2-39.5c0.9-3.6,2.3-4.8,3.3-4.8c1.2,0,2,1.7,2.2,4.4c0.4,6.2,1,26.9,1,30.7
		c0,0.1,0,0.4,0.2,0.4c0.1,0,0.2-0.1,0.3-0.2c0.9-1.4,3.2-4.7,4.6-6.1c1-1.1,1.9-1.6,2.8-1.6c0.7,0,1.3,0.3,2.2,0.8
		c0.7,0.5,1.3,0.9,1.9,1.4c1.2,0.9,2.4,1.8,3.7,2.3c1.1,0.4,2.9,0.5,4.3,0.5c0.8,0,1.6,0,1.9,0L259.4,131.7z"/>
	<path class="st0" d="M158.3,200.5l1-5.8h2.2c0.9,0,1.7-0.1,2.5-0.3c0.8-0.2,1.4-0.5,2-0.9c0.5-0.4,1-0.9,1.3-1.5
		c0.3-0.6,0.4-1.3,0.4-2.1c0-1.2-0.4-2.2-1.3-2.8c-0.8-0.7-2.1-1-3.7-1v0h-4.4c0,0-1.9,10.8-2.2,12.7c0,0.1,0,0.2,0,0.3v0.1
		C156.1,200.7,158.3,200.5,158.3,200.5z M160.4,188.3h1.8c0.4,0,0.8,0,1.1,0.1c0.3,0.1,0.6,0.2,0.9,0.3c0.2,0.2,0.4,0.4,0.6,0.6
		c0.1,0.3,0.2,0.6,0.2,1c0,0.4-0.1,0.8-0.3,1.1c-0.2,0.3-0.4,0.5-0.7,0.7c-0.3,0.2-0.7,0.3-1.1,0.4c-0.4,0.1-0.9,0.1-1.4,0.1v0h-1.9
		L160.4,188.3z"/>
	<path class="st0" d="M182.8,195.2c0-0.2,0.1-0.4,0.2-0.7c0.1-0.3,0.3-0.6,0.5-0.9c0.2-0.3,0.5-0.5,0.9-0.7c0.4-0.2,0.8-0.3,1.4-0.3
		c0.1,0,0.2,0,0.3,0c0.1,0,0.3,0,0.4,0.1l0.3-2.3c-0.1,0-0.2,0-0.3,0c-0.1,0-0.2,0-0.3,0c-0.7,0-1.2,0.2-1.7,0.5
		c-0.5,0.4-0.9,0.8-1.2,1.4v0h0c0-1.9-2.1-1.7-2.1-1.7c0,0.3-0.1,0.7-0.1,1.1c-0.1,0.4-0.1,0.8-0.2,1l-1.4,7.8h2.4L182.8,195.2z"/>
	<path class="st0" d="M199.6,199.6c0.4,0.4,0.9,0.7,1.5,0.9c0.6,0.2,1.2,0.3,1.9,0.3c0.9,0,1.7-0.2,2.5-0.5s1.4-0.8,1.9-1.3
		c0.5-0.6,0.9-1.2,1.2-2c0.3-0.7,0.4-1.5,0.4-2.4c0-0.6-0.1-1.2-0.4-1.8c-0.2-0.5-0.6-1-1-1.4c-0.4-0.4-0.9-0.7-1.5-0.9
		c-0.6-0.2-1.2-0.3-1.9-0.3c-0.9,0-1.7,0.2-2.5,0.5c-0.7,0.3-1.4,0.8-1.9,1.4c-0.5,0.6-0.9,1.2-1.2,2c-0.3,0.7-0.4,1.5-0.4,2.3
		c0,0.6,0.1,1.2,0.4,1.8C198.8,198.7,199.2,199.2,199.6,199.6z M200.9,194.7c0.2-0.5,0.4-0.9,0.7-1.2c0.3-0.4,0.7-0.6,1.1-0.9
		c0.4-0.2,0.9-0.3,1.4-0.3c0.8,0,1.4,0.2,1.9,0.7s0.7,1.1,0.7,1.9c0,0.5-0.1,1-0.2,1.5c-0.2,0.5-0.4,0.9-0.7,1.3
		c-0.3,0.4-0.7,0.6-1.1,0.9c-0.4,0.2-0.9,0.3-1.4,0.3c-0.8,0-1.4-0.2-1.9-0.7c-0.4-0.5-0.7-1.1-0.7-1.9
		C200.6,195.7,200.7,195.2,200.9,194.7z"/>
	<path class="st0" d="M210.5,200.5c0,0,2.3,0.3,2.6-1.6c0.3-1.6,1.1-6.4,1.1-6.4c2.4,0,2.6-1.9,2.6-1.9h-2.3l0.3-1.6
		c0-0.2,0.1-0.5,0.2-0.8c0.1-0.3,0.2-0.5,0.3-0.7c0.2-0.2,0.3-0.4,0.6-0.5c0.2-0.1,0.5-0.2,0.8-0.2c0.2,0,0.3,0,0.5,0
		c0.1,0,0.3,0.1,0.4,0.1l0.5-2.1c-0.3-0.1-0.7-0.1-1.2-0.1c-0.7,0-1.4,0.1-1.9,0.4c-0.5,0.3-1,0.6-1.3,1c-0.3,0.4-0.6,0.9-0.8,1.4
		c-0.2,0.5-0.3,1.1-0.4,1.6l-0.3,1.5h-1.8l-0.3,1.9h1.9L210.5,200.5z"/>
	<path class="st0" d="M171.3,200.7c2,0,3-0.9,3.6-1.9l0,0.2c-0.2,0.9,0.6,1.5,1.3,1.5h0.6l1.7-10h-2.2l-0.3,1.5
		c-0.4-0.8-1.5-1.7-3.3-1.7c-3.1,0-5,2.6-5.3,5.4C167.2,198.9,169.2,200.7,171.3,200.7z M173.2,192c3.6,0.2,2.4,7.1-1.2,6.9
		C168.6,198.7,169.6,191.8,173.2,192z"/>
	<path class="st0" d="M188.5,197.2c0,0.2-0.1,0.4-0.1,0.6c0,0.2,0,0.4,0,0.6c0,0.7,0.2,1.3,0.6,1.7c0.2,0.2,0.7,0.6,2.3,0.6
		c0.2,0,0.8,0,1.5-0.3l0.1-1.9c-0.1,0-0.3,0.1-0.5,0.1c-0.2,0-0.3,0-0.5,0c-0.4,0-0.7-0.1-0.9-0.2c-0.2-0.1-0.3-0.4-0.3-0.7
		c0-0.2,0-0.4,0.1-0.6l0.9-4.6h2.2l0.4-2h-2.2l0.2-1.4c0.1-1-0.5-1.5-1.6-1.5h-0.5l-0.5,2.9h-1.7l-0.4,2h1.8L188.5,197.2z"/>
	<path class="st0" d="M261.1,200.7c2,0,3.1-0.9,3.8-1.9l0,0.2c-0.2,1,0.6,1.5,1.3,1.5h0.7l1.8-10.3h-2.2l-0.3,1.6
		c-0.4-0.8-1.5-1.8-3.4-1.8c-3.2,0-5.2,2.7-5.5,5.5C256.8,198.8,258.9,200.7,261.1,200.7z M263,191.7c3.7,0.2,2.5,7.4-1.3,7.2
		C258.3,198.7,259.4,191.5,263,191.7z"/>
	<path class="st0" d="M227.7,200.4c2.6-0.5,3.7-2.5,3.9-3.8c0.3-1.9-0.9-3.2-2.3-3.5c1-0.2,2.9-1.3,2.9-3.5c0-2.3-1.5-3.4-4.1-3.4
		c-1.6,0-4.1,0-5.1,0l-2.6,14.4c0.3,0,3.1,0,4.6,0C226.2,200.5,227.2,200.5,227.7,200.4z M225.3,187.7h2.3c2.7,0,2.5,3.7,0.2,4.5
		c-0.3,0.1-0.7,0.1-1.5,0.1h-1.7L225.3,187.7z M223.3,198.9l0.9-4.8h2.5c3.3,0,3,4,0.1,4.7c-0.3,0.1-0.8,0.1-1.7,0.1H223.3z"/>
	<path class="st0" d="M237.3,200.7c3.6,0,4.9-1.9,5.4-4.1c0.1-0.7,0.8-4.5,0.9-4.8c0.2-1.1-0.8-1.6-1.4-1.6h-0.7c0,0-1,5.7-1.1,6.3
		c-0.2,1.4-0.9,2.3-2.8,2.3c-1.1,0-2.1-0.6-1.9-2.1c0.1-0.6,0.8-4.7,0.9-5c0.2-1.1-0.7-1.5-1.5-1.5h-0.6c-0.1,0.9-0.8,4.5-1,5.9
		c-0.1,0.6-0.1,1.1-0.1,1.5C233.5,199.6,235.2,200.7,237.3,200.7z"/>
	<path class="st0" d="M250.2,200.7c3.3,0,5.4-2.6,5.6-5.6c0.2-3.2-1.7-5.1-3.9-5.1c-1.9,0-3.2,0.9-3.9,1.9l0-0.1
		c0.2-1-0.6-1.5-1.3-1.5H246c0,0-1.9,11.1-2.2,12.4c-0.3,1.5,0.8,1.9,1.3,1.9h0.7l1-5.7C247.2,199.7,248.4,200.7,250.2,200.7z
		 M251.2,191.9c3.4,0.2,2.4,7.4-1.3,7.2C246.1,198.9,247.4,191.7,251.2,191.9z"/>
</g>
</svg>
