<?xml version="1.0" encoding="utf-8"?>
<!-- Generator: Adobe Illustrator 24.3.0, SVG Export Plug-In . SVG Version: 6.00 Build 0)  -->
<svg version="1.1" id="Layer_1" xmlns="http://www.w3.org/2000/svg" xmlns:xlink="http://www.w3.org/1999/xlink" x="0px" y="0px"
	 viewBox="0 0 424.7 267" style="enable-background:new 0 0 424.7 267;" xml:space="preserve">
<style type="text/css">
	.st0{fill:#f1f1f1;}
</style>
<g>
	<path class="st0" d="M108.7,158.2c0,3.1,2.6,5.7,5.7,5.7H137v-5.8h-21.2c-0.7,0-1.3-0.6-1.3-1.3v-12.2H137v-5.8h-28.3V158.2z"/>
	<path class="st0" d="M74.6,127.3c0,3.1,2.5,5.7,5.7,5.7H103v-5.8H81.7c-0.7,0-1.3-0.6-1.3-1.3v-12.2h22.5v-5.8H74.6V127.3z"/>
	<path class="st0" d="M74.6,144.5v13.8c0,0.1,0,0.2,0,0.3c1.8-2.1,9-9.9,19.1-11.8c-4.4,2.2-15.7,9-21.7,22.7h5.4
		c0.7-2,1.4-3.9,2.2-5.6c0.2,0,0.4,0,0.6,0h17c3.1,0,5.7-2.5,5.7-5.7v-19.5H80.3C77.1,138.8,74.6,141.3,74.6,144.5"/>
	<path class="st0" d="M173.2,122.5c-0.9-0.9-1.9-1.6-3.1-2.1c-1.2-0.5-2.5-0.8-3.9-0.8c-1,0-1.9,0.1-2.7,0.4s-1.5,0.6-2.1,1.1
		s-1,1-1.4,1.7c-0.3,0.7-0.5,1.4-0.5,2.1c0,0.8,0.2,1.5,0.5,2.2s0.8,1.2,1.4,1.7c0.6,0.5,1.3,0.9,2.2,1.1c0.9,0.3,1.8,0.4,2.9,0.4
		c1.4,0,2.6-0.2,3.7-0.7c1.1-0.5,2.1-1.2,3.1-2.3l3.3,1.8c-0.7,0.8-1.4,1.4-2.1,2c-0.7,0.5-1.5,1-2.3,1.4s-1.7,0.6-2.6,0.8
		c-0.9,0.2-1.9,0.2-2.9,0.2c-1.4,0-2.8-0.2-4-0.5s-2.4-0.9-3.6-1.6c-1.1-0.7-1.9-1.6-2.6-2.7c-0.6-1.1-1-2.4-1-3.7
		c0-1.2,0.2-2.2,0.7-3.2s1.2-1.9,2.1-2.6c1-0.8,2.2-1.5,3.6-2c1.4-0.5,2.9-0.7,4.5-0.7c2.2,0,4.1,0.4,5.8,1.2c1.7,0.8,3.2,2,4.5,3.6
		L173.2,122.5z"/>
	<path class="st0" d="M196,133l-1.8-3.5h-10.3L182,133h-3.9l8.5-16.1h4.8l8.5,16.1H196z M189,119.9l-3.5,6.6h7.1L189,119.9z"/>
	<path class="st0" d="M214.3,120.2c-1.2-0.3-2.4-0.4-3.6-0.4c-1.7,0-3,0.2-3.8,0.5c-0.9,0.3-1.3,0.7-1.3,1.2s0.5,0.9,1.4,1.2
		c0.4,0.1,0.8,0.2,1.2,0.2s0.9,0.1,1.4,0.1s1,0,1.6,0.1c0.6,0,1.2,0.1,1.8,0.1c1.3,0.1,2.4,0.3,3.3,0.5c0.9,0.2,1.7,0.5,2.3,0.9
		s1.1,0.8,1.4,1.4c0.3,0.6,0.5,1.2,0.5,2c0,1.7-0.8,3.1-2.4,4.1c-1.6,1-3.9,1.5-7,1.5c-2,0-3.9-0.2-5.6-0.7
		c-1.7-0.5-3.3-1.2-4.9-2.3l2.1-2.6c1.4,0.8,2.8,1.5,4.1,1.9c1.4,0.4,2.8,0.6,4.3,0.6c1.6,0,2.9-0.2,3.7-0.6c0.9-0.4,1.3-1,1.3-1.6
		c0-0.4-0.1-0.6-0.4-0.8c-0.3-0.2-0.6-0.3-1.1-0.4s-1-0.2-1.7-0.2s-1.5-0.1-2.3-0.1c-1.6-0.1-2.9-0.2-4.1-0.4
		c-1.2-0.2-2.1-0.5-2.9-0.9c-0.8-0.4-1.4-0.9-1.7-1.4c-0.4-0.6-0.6-1.3-0.6-2.1c0-1.6,0.8-2.8,2.3-3.8c1.5-0.9,3.7-1.4,6.7-1.4
		c3.9,0,7.1,0.8,9.4,2.4l-2.2,2.6C216.6,120.9,215.5,120.4,214.3,120.2"/>
	<polygon class="st0" points="233.4,120.1 233.4,133 229.5,133 229.5,120.1 221.9,120.1 221.9,117 241.1,117 241.1,120.1 	"/>
	<path class="st0" d="M257.4,133l-1.8-3.5h-10.3l-1.8,3.5h-3.9l8.5-16.1h4.8l8.5,16.1H257.4z M250.4,119.9l-3.5,6.6h7.1L250.4,119.9
		z"/>
	<polygon class="st0" points="279.1,133 268.2,121.6 268.1,121.6 268.1,133 264.2,133 264.2,117 268.8,117 279.7,128.5 279.7,128.5 
		279.7,117 283.7,117 283.7,133 	"/>
	<polygon class="st0" points="304.7,133 304.7,126.2 293.1,126.2 293.1,133 289.2,133 289.2,117 293.1,117 293.1,122.9 304.7,122.9 
		304.7,117 308.6,117 308.6,133 	"/>
	<path class="st0" d="M329.6,133l-1.8-3.5h-10.3l-1.8,3.5h-3.9l8.5-16.1h4.8l8.5,16.1H329.6z M322.6,119.9l-3.5,6.6h7.1L322.6,119.9
		z"/>
	<polygon class="st0" points="336.4,133 336.4,117 340.3,117 340.3,130 352.6,130 352.6,133 	"/>
	<path class="st0" d="M137,113.7v-5.8h-22.5V97.5h-5.8v29.8c0,3.1,2.5,5.7,5.7,5.7H137v-5.8h-21.2c-0.7,0-1.3-0.6-1.3-1.3v-12.2H137
		z"/>
	<path class="st0" d="M162.1,140.7c-0.3-0.3-0.7-0.6-1.1-0.8c-0.4-0.2-0.9-0.3-1.4-0.3c-0.4,0-0.7,0.1-1,0.1
		c-0.3,0.1-0.6,0.2-0.8,0.4s-0.4,0.4-0.5,0.6c-0.1,0.2-0.2,0.5-0.2,0.8s0.1,0.6,0.2,0.8c0.1,0.2,0.3,0.5,0.5,0.6
		c0.2,0.2,0.5,0.3,0.8,0.4c0.3,0.1,0.7,0.1,1.1,0.1c0.5,0,0.9-0.1,1.3-0.3c0.4-0.2,0.8-0.5,1.1-0.8l1.2,0.6
		c-0.2,0.3-0.5,0.5-0.8,0.7s-0.5,0.4-0.8,0.5s-0.6,0.2-0.9,0.3c-0.3,0.1-0.7,0.1-1.1,0.1c-0.5,0-1-0.1-1.5-0.2
		c-0.4-0.1-0.9-0.3-1.3-0.6c-0.4-0.2-0.7-0.6-0.9-1s-0.3-0.9-0.3-1.4c0-0.4,0.1-0.8,0.3-1.2s0.4-0.7,0.8-1c0.4-0.3,0.8-0.5,1.3-0.7
		s1.1-0.2,1.6-0.2c0.8,0,1.5,0.1,2.1,0.4c0.6,0.3,1.2,0.7,1.6,1.3L162.1,140.7z"/>
	<path class="st0" d="M177.7,141.6c0,0.9-0.3,1.6-1,2.1c-0.4,0.3-0.8,0.5-1.3,0.7s-1.1,0.3-1.7,0.3c-0.6,0-1.1-0.1-1.7-0.3
		c-0.5-0.2-0.9-0.4-1.3-0.7c-0.3-0.3-0.6-0.6-0.8-1s-0.2-0.8-0.2-1.2s0.1-0.8,0.3-1.2s0.4-0.7,0.8-1c0.4-0.3,0.8-0.5,1.3-0.7
		s1.1-0.3,1.6-0.3c0.6,0,1.1,0.1,1.6,0.3s1,0.4,1.3,0.7C177.4,140.1,177.7,140.8,177.7,141.6 M176.2,141.6c0-0.3-0.1-0.6-0.2-0.8
		c-0.1-0.2-0.3-0.4-0.5-0.6c-0.2-0.2-0.5-0.3-0.8-0.4c-0.3-0.1-0.7-0.1-1-0.1c-0.4,0-0.7,0.1-1,0.1c-0.3,0.1-0.6,0.2-0.8,0.4
		s-0.4,0.4-0.5,0.6c-0.1,0.2-0.2,0.5-0.2,0.8s0.1,0.6,0.2,0.8c0.1,0.2,0.3,0.4,0.5,0.6c0.2,0.2,0.5,0.3,0.8,0.4
		c0.3,0.1,0.7,0.1,1,0.1c0.4,0,0.7,0,1.1-0.1c0.3-0.1,0.6-0.2,0.8-0.4s0.4-0.4,0.5-0.6C176.2,142.2,176.2,141.9,176.2,141.6"/>
	<polygon class="st0" points="191.9,144.6 191.9,140.4 191.9,140.4 189.1,143.8 186.3,140.4 186.3,140.4 186.3,144.6 184.9,144.6 
		184.9,138.7 186.5,138.7 189.1,141.8 191.7,138.7 193.4,138.7 193.4,144.6 	"/>
	<path class="st0" d="M206.5,138.9c0.3,0.1,0.5,0.2,0.7,0.4s0.3,0.4,0.4,0.6c0.1,0.2,0.2,0.5,0.2,0.8c0,0.6-0.2,1.1-0.6,1.4
		c-0.4,0.3-0.9,0.5-1.7,0.5h-3.3v2.1h-1.4v-5.9h4.8C206,138.7,206.3,138.8,206.5,138.9 M206.2,141.2c0.2-0.1,0.2-0.3,0.2-0.6
		s-0.1-0.5-0.2-0.6c-0.2-0.1-0.4-0.2-0.7-0.2h-3.2v1.6h3.2C205.8,141.4,206,141.3,206.2,141.2"/>
	<path class="st0" d="M219.4,144.6l-0.7-1.3h-3.8l-0.7,1.3h-1.4l3.1-5.9h1.8l3.1,5.9H219.4z M216.8,139.8l-1.3,2.4h2.6L216.8,139.8z
		"/>
	<polygon class="st0" points="232.7,144.6 228.7,140.4 228.7,140.4 228.7,144.6 227.3,144.6 227.3,138.7 228.9,138.7 232.9,142.9 
		232.9,142.9 232.9,138.7 234.4,138.7 234.4,144.6 	"/>
	<polygon class="st0" points="247.5,144.6 247.5,142.1 243.3,142.1 243.3,144.6 241.8,144.6 241.8,138.7 243.3,138.7 243.3,140.9 
		247.5,140.9 247.5,138.7 248.9,138.7 248.9,144.6 	"/>
	<rect x="256.4" y="138.7" class="st0" width="1.4" height="5.9"/>
	<path class="st0" d="M270.8,144.6l-0.7-1.3h-3.8l-0.7,1.3h-1.4l3.1-5.9h1.8l3.1,5.9H270.8z M268.3,139.8l-1.3,2.4h2.6L268.3,139.8z
		"/>
	<polygon class="st0" points="287.8,139.8 287.8,144.6 286.4,144.6 286.4,139.8 283.6,139.8 283.6,138.7 290.6,138.7 290.6,139.8 	
		"/>
	<path class="st0" d="M297.4,144.6v-5.9h6.4v1.1h-4.9v1.2h3.4v1.1h-3.4v1.3h5.2v1.1L297.4,144.6L297.4,144.6z M301.1,138.3l-0.7-0.8
		l-0.7,0.8h-1l1.4-1.5h0.7l1.4,1.5H301.1z"/>
	<polygon class="st0" points="316.5,144.6 314.3,142.5 312,144.6 310.1,144.6 313.3,141.6 310.2,138.7 312.1,138.7 314.3,140.8 
		316.4,138.7 318.3,138.7 315.2,141.6 318.4,144.6 	"/>
	<polygon class="st0" points="328.4,139.8 328.4,144.6 327,144.6 327,139.8 324.2,139.8 324.2,138.7 331.2,138.7 331.2,139.8 	"/>
	<rect x="337.9" y="138.7" class="st0" width="1.4" height="5.9"/>
	<polygon class="st0" points="346.7,144.6 346.7,138.7 348.1,138.7 348.1,143.5 352.6,143.5 352.6,144.6 	"/>
</g>
</svg>
