<?xml version="1.0" encoding="UTF-8" standalone="no"?>
<svg
   xmlns:dc="http://purl.org/dc/elements/1.1/"
   xmlns:cc="http://creativecommons.org/ns#"
   xmlns:rdf="http://www.w3.org/1999/02/22-rdf-syntax-ns#"
   xmlns:svg="http://www.w3.org/2000/svg"
   xmlns="http://www.w3.org/2000/svg"
   viewBox="0 0 638.1333 638.1333"
   height="638.1333"
   width="638.1333"
   xml:space="preserve"
   id="svg2"
   version="1.1"><metadata
     id="metadata8"><rdf:RDF><cc:Work
         rdf:about=""><dc:format>image/svg+xml</dc:format><dc:type
           rdf:resource="http://purl.org/dc/dcmitype/StillImage" /></cc:Work></rdf:RDF></metadata><defs
     id="defs6"><clipPath
       id="clipPath20"
       clipPathUnits="userSpaceOnUse"><path
         id="path18"
         d="M 2392.98,0 C 1071.37,0 0.00390625,1071.37 0.00390625,2392.98 0.00390625,3714.58 1071.37,4785.95 2392.98,4785.95 c 1321.6,0 2392.97,-1071.37 2392.97,-2392.97 C 4785.95,1071.37 3714.58,0 2392.98,0" /></clipPath><linearGradient
       id="linearGradient28"
       spreadMethod="pad"
       gradientTransform="matrix(3384.18,3384.18,3384.18,-3384.18,700.886,700.89)"
       gradientUnits="userSpaceOnUse"
       y2="0"
       x2="1"
       y1="0"
       x1="0"><stop
         id="stop22"
         offset="0"
         style="stop-opacity:1;stop-color:#f1fafd" /><stop
         id="stop24"
         offset="0.505587"
         style="stop-opacity:1;stop-color:#faf1f9" /><stop
         id="stop26"
         offset="1"
         style="stop-opacity:1;stop-color:#f4f1f7" /></linearGradient></defs><g
     transform="matrix(1.3333333,0,0,-1.3333333,0,638.13333)"
     id="g10"><g
       transform="scale(0.1)"
       id="g12"><g
         id="g14"><g
           clip-path="url(#clipPath20)"
           id="g16"><path
             id="path30"
             style="fill:url(#linearGradient28);fill-opacity:1;fill-rule:nonzero;stroke:none"
             d="M 2392.98,0 C 1071.37,0 0.00390625,1071.37 0.00390625,2392.98 0.00390625,3714.58 1071.37,4785.95 2392.98,4785.95 c 1321.6,0 2392.97,-1071.37 2392.97,-2392.97 C 4785.95,1071.37 3714.58,0 2392.98,0" /></g></g></g></g></svg>