<?xml version="1.0" encoding="utf-8"?>
<!-- Generator: Adobe Illustrator 24.3.0, SVG Export Plug-In . SVG Version: 6.00 Build 0)  -->
<svg version="1.1" id="Layer_1" xmlns="http://www.w3.org/2000/svg" xmlns:xlink="http://www.w3.org/1999/xlink" x="0px" y="0px"
	 viewBox="0 0 424.7 267" style="enable-background:new 0 0 424.7 267;" xml:space="preserve">
<style type="text/css">
	.st0{fill:#f1f1f1;}
</style>
<g>
	<g>
		<path class="st0" d="M109.1,161.6c-4.5,0-7.9-1.2-10.2-3.7c-2.3-2.5-3.5-6-3.5-10.6c0-2.3,0.4-4.3,1.1-6.1s1.7-3.3,2.9-4.5
			c1.2-1.2,2.7-2.2,4.4-2.8c1.7-0.6,3.6-0.9,5.6-0.9c1.2,0,2.2,0.1,3.2,0.3c0.9,0.2,1.8,0.4,2.5,0.6c0.7,0.2,1.3,0.5,1.8,0.7
			s0.8,0.4,1,0.6l-1.8,5c-0.8-0.4-1.8-0.8-2.9-1.1s-2.4-0.5-3.8-0.5c-0.9,0-1.9,0.2-2.8,0.5s-1.7,0.8-2.4,1.5
			c-0.7,0.7-1.3,1.6-1.7,2.7c-0.4,1.1-0.6,2.5-0.6,4c0,1.3,0.1,2.4,0.4,3.5s0.7,2,1.3,2.8c0.6,0.8,1.4,1.4,2.4,1.9s2.2,0.7,3.6,0.7
			c0.9,0,1.7-0.1,2.4-0.2c0.7-0.1,1.3-0.2,1.9-0.4c0.6-0.1,1-0.3,1.5-0.5c0.4-0.2,0.8-0.4,1.1-0.5l1.7,4.9c-0.9,0.5-2.1,1-3.7,1.4
			C113,161.4,111.1,161.6,109.1,161.6z"/>
		<path class="st0" d="M140.8,150.6c0,1.6-0.2,3.1-0.7,4.5s-1.2,2.5-2.1,3.5c-0.9,1-2,1.7-3.2,2.2c-1.3,0.5-2.7,0.8-4.2,0.8
			s-2.9-0.3-4.2-0.8c-1.3-0.5-2.3-1.3-3.2-2.2c-0.9-1-1.6-2.1-2.1-3.5s-0.8-2.9-0.8-4.5s0.3-3.1,0.8-4.5c0.5-1.3,1.2-2.5,2.1-3.4
			s2-1.7,3.2-2.2c1.3-0.5,2.6-0.8,4.1-0.8s2.9,0.3,4.1,0.8c1.3,0.5,2.3,1.3,3.2,2.2s1.6,2.1,2.1,3.4
			C140.5,147.5,140.8,149,140.8,150.6z M134.8,150.6c0-1.8-0.4-3.2-1.1-4.3c-0.7-1-1.8-1.6-3.1-1.6s-2.4,0.5-3.1,1.6
			c-0.7,1-1.1,2.5-1.1,4.3s0.4,3.3,1.1,4.3c0.7,1.1,1.8,1.6,3.1,1.6s2.4-0.5,3.1-1.6C134.4,153.9,134.8,152.4,134.8,150.6z"/>
		<path class="st0" d="M156.8,150c0-1.9-0.2-3.2-0.7-4s-1.3-1.2-2.5-1.2c-0.4,0-0.8,0-1.1,0.1c-0.4,0-0.8,0.1-1.1,0.1v16.1h-5.9V141
			c0.5-0.1,1.1-0.3,1.8-0.4c0.7-0.1,1.4-0.3,2.1-0.4c0.8-0.1,1.5-0.2,2.3-0.3s1.6-0.1,2.3-0.1c1.5,0,2.7,0.2,3.7,0.6
			c0.9,0.4,1.7,0.8,2.3,1.4c0.8-0.6,1.8-1.1,2.9-1.4c1.1-0.3,2.1-0.5,3-0.5c1.7,0,3,0.2,4.1,0.7s1.9,1.1,2.6,2
			c0.6,0.8,1.1,1.8,1.3,3s0.4,2.5,0.4,3.9v11.7h-5.9v-11c0-1.9-0.2-3.2-0.7-4s-1.3-1.2-2.5-1.2c-0.3,0-0.8,0.1-1.3,0.2
			c-0.6,0.2-1,0.4-1.4,0.6c0.2,0.6,0.3,1.2,0.4,1.9c0.1,0.7,0.1,1.4,0.1,2.2v11.4h-5.9V150H156.8z"/>
		<path class="st0" d="M197.2,160.3c-1,0.3-2.3,0.6-3.9,0.8c-1.6,0.3-3.2,0.4-5,0.4s-3.2-0.2-4.4-0.7s-2.1-1.1-2.8-2
			s-1.2-1.9-1.5-3.1c-0.3-1.2-0.4-2.5-0.4-3.9v-11.6h5.9v10.9c0,1.9,0.3,3.3,0.8,4.1s1.4,1.3,2.8,1.3c0.4,0,0.9,0,1.3-0.1
			c0.5,0,0.9-0.1,1.3-0.1v-16.1h5.9L197.2,160.3L197.2,160.3z"/>
		<path class="st0" d="M202.7,141c1-0.3,2.3-0.6,3.9-0.8c1.6-0.3,3.2-0.4,5-0.4s3.2,0.2,4.4,0.7s2.1,1.1,2.8,2
			c0.7,0.8,1.2,1.8,1.5,3s0.4,2.5,0.4,3.9v11.7h-5.9v-11c0-1.9-0.3-3.2-0.8-4s-1.4-1.2-2.8-1.2c-0.4,0-0.9,0-1.3,0.1
			c-0.5,0-0.9,0.1-1.3,0.1v16.1h-5.9L202.7,141L202.7,141z"/>
		<path class="st0" d="M232.5,134.2c0,1.1-0.3,1.9-1,2.6c-0.7,0.6-1.5,0.9-2.5,0.9c-0.9,0-1.8-0.3-2.5-0.9c-0.7-0.6-1-1.5-1-2.6
			s0.3-1.9,1-2.6c0.7-0.6,1.5-0.9,2.5-0.9c0.9,0,1.8,0.3,2.5,0.9C232.1,132.3,232.5,133.1,232.5,134.2z M231.9,161.1H226v-20.8h5.9
			V161.1z"/>
		<path class="st0" d="M236.5,150.6c0-1.6,0.2-3.1,0.7-4.4c0.5-1.3,1.2-2.5,2.1-3.4c0.9-1,2.1-1.7,3.4-2.2c1.3-0.5,2.9-0.8,4.6-0.8
			c0.7,0,1.5,0,2.2,0.1c0.8,0.1,1.5,0.2,2.3,0.3s1.5,0.2,2.2,0.4c0.7,0.1,1.3,0.3,1.8,0.5v27.4h-5.9v-7.8c-0.7,0.3-1.3,0.5-2.1,0.7
			c-0.7,0.2-1.5,0.2-2.3,0.2c-3,0-5.2-1-6.8-2.9C237.3,156.6,236.5,154,236.5,150.6z M242.5,150.8c0,3.8,1.4,5.7,4.2,5.7
			c0.6,0,1.2-0.1,1.8-0.2c0.6-0.2,1.1-0.4,1.4-0.6V145c-0.3-0.1-0.7-0.1-1.1-0.1c-0.4,0-0.9-0.1-1.5-0.1c-1.6,0-2.8,0.5-3.6,1.6
			C242.9,147.5,242.5,149,242.5,150.8z"/>
		<path class="st0" d="M279.1,160.3c-1,0.3-2.3,0.6-3.9,0.8c-1.6,0.3-3.2,0.4-5,0.4s-3.2-0.2-4.4-0.7c-1.2-0.5-2.1-1.1-2.8-2
			c-0.7-0.9-1.2-1.9-1.5-3.1c-0.3-1.2-0.4-2.5-0.4-3.9v-11.6h5.9v10.9c0,1.9,0.3,3.3,0.8,4.1s1.4,1.3,2.8,1.3c0.4,0,0.9,0,1.3-0.1
			c0.5,0,0.9-0.1,1.3-0.1v-16.1h5.9L279.1,160.3L279.1,160.3z"/>
		<path class="st0" d="M283.7,150.8c0-1.8,0.3-3.5,0.9-4.8c0.6-1.4,1.3-2.5,2.2-3.5c0.9-0.9,2-1.6,3.2-2.1s2.4-0.7,3.7-0.7
			c3,0,5.3,0.9,7,2.7s2.6,4.5,2.6,8c0,0.3,0,0.7,0,1.1c0,0.4-0.1,0.8-0.1,1.1h-13.4c0.1,1.2,0.7,2.2,1.7,2.9s2.3,1.1,4,1.1
			c1.1,0,2.1-0.1,3.2-0.3c1-0.2,1.9-0.4,2.6-0.7l0.8,4.8c-0.3,0.2-0.7,0.3-1.3,0.5c-0.5,0.2-1.1,0.3-1.8,0.4
			c-0.6,0.1-1.3,0.2-2.1,0.3c-0.7,0.1-1.5,0.1-2.2,0.1c-1.9,0-3.5-0.3-4.9-0.8c-1.4-0.6-2.5-1.3-3.4-2.3s-1.6-2.1-2-3.4
			C283.9,153.8,283.7,152.3,283.7,150.8z M297.5,148.6c0-0.5-0.1-1-0.3-1.5c-0.1-0.5-0.4-0.9-0.7-1.3c-0.3-0.4-0.7-0.7-1.1-0.9
			c-0.5-0.2-1-0.4-1.7-0.4s-1.2,0.1-1.7,0.3s-0.9,0.5-1.2,0.9c-0.3,0.4-0.6,0.8-0.7,1.3c-0.2,0.5-0.3,1-0.4,1.5L297.5,148.6
			L297.5,148.6z"/>
		<path class="st0" d="M306,146.6h11.5v5.3H306V146.6z"/>
		<path class="st0" d="M327.2,156.8c1.1,0,1.8-0.1,2.3-0.3c0.4-0.2,0.7-0.6,0.7-1.2c0-0.5-0.3-0.9-0.9-1.2c-0.6-0.4-1.5-0.8-2.7-1.2
			c-0.9-0.3-1.8-0.7-2.5-1.1c-0.8-0.4-1.4-0.8-1.9-1.3s-0.9-1.1-1.2-1.8c-0.3-0.7-0.4-1.6-0.4-2.6c0-2,0.7-3.5,2.2-4.6
			c1.4-1.1,3.4-1.7,6-1.7c1.3,0,2.5,0.1,3.6,0.3c1.2,0.2,2.1,0.5,2.8,0.7l-1,4.6c-0.7-0.2-1.4-0.4-2.2-0.6c-0.8-0.2-1.7-0.3-2.7-0.3
			c-1.8,0-2.8,0.5-2.8,1.5c0,0.2,0,0.4,0.1,0.6c0.1,0.2,0.2,0.4,0.5,0.5c0.2,0.2,0.6,0.4,1,0.6c0.4,0.2,0.9,0.4,1.6,0.7
			c1.3,0.5,2.4,1,3.2,1.4c0.8,0.5,1.5,1,2,1.5s0.8,1.1,1,1.8s0.3,1.4,0.3,2.3c0,2.1-0.8,3.6-2.3,4.7c-1.5,1.1-3.7,1.6-6.5,1.6
			c-1.8,0-3.4-0.2-4.6-0.5s-2.1-0.6-2.6-0.8l1-4.8c1,0.4,2,0.7,3.1,0.9C325.1,156.7,326.2,156.8,327.2,156.8z"/>
		<path class="st0" d="M339.4,150.8c0-1.8,0.3-3.5,0.9-4.8c0.6-1.4,1.3-2.5,2.2-3.5c0.9-0.9,2-1.6,3.2-2.1s2.4-0.7,3.7-0.7
			c3,0,5.3,0.9,7,2.7s2.6,4.5,2.6,8c0,0.3,0,0.7,0,1.1c0,0.4-0.1,0.8-0.1,1.1h-13.4c0.1,1.2,0.7,2.2,1.7,2.9s2.3,1.1,4,1.1
			c1.1,0,2.1-0.1,3.2-0.3c1-0.2,1.9-0.4,2.6-0.7l0.8,4.8c-0.3,0.2-0.7,0.3-1.3,0.5c-0.5,0.2-1.1,0.3-1.8,0.4
			c-0.6,0.1-1.3,0.2-2.1,0.3c-0.7,0.1-1.5,0.1-2.2,0.1c-1.9,0-3.5-0.3-4.9-0.8c-1.4-0.6-2.5-1.3-3.4-2.3s-1.6-2.1-2-3.4
			C339.6,153.8,339.4,152.3,339.4,150.8z M353.2,148.6c0-0.5-0.1-1-0.3-1.5c-0.1-0.5-0.4-0.9-0.7-1.3c-0.3-0.4-0.7-0.7-1.1-0.9
			c-0.5-0.2-1-0.4-1.7-0.4s-1.2,0.1-1.7,0.3s-0.9,0.5-1.2,0.9c-0.3,0.4-0.6,0.8-0.7,1.3c-0.2,0.5-0.3,1-0.4,1.5L353.2,148.6
			L353.2,148.6z"/>
	</g>
	<g>
		<g>
			<path class="st0" d="M122.8,105.8c0,0-8.7-11.2-13.1-16.6s-9.4-4.6-9.4-4.6s-14.2,0-24.9,0S65.7,96,65.7,96v53.2
				c0,0,0,11.6,0,22.3s10,11,10,11s29.3,0,34.5,0c5.3,0,5-5,5-5v-7c-5.1,3.3-10.7,2.2-10.7,2.2s-21.5-2-21.5-24.3s18.2-24.9,24-24.9
				s10.2,1.9,10.2,1.9c0-3.6-1.5-9.9-1.5-9.9s2.2-0.7,6.3-2.8C126.2,110.7,122.8,105.8,122.8,105.8z M102.3,106.9
				c-2.9,0-5.3-2.4-5.3-5.3s2.4-5.3,5.3-5.3s5.3,2.4,5.3,5.3C107.5,104.5,105.2,106.9,102.3,106.9z"/>
		</g>
	</g>
</g>
</svg>
