<?xml version="1.0" encoding="utf-8"?>
<!-- Generator: Adobe Illustrator 24.3.0, SVG Export Plug-In . SVG Version: 6.00 Build 0)  -->
<svg version="1.1" id="Layer_1" xmlns="http://www.w3.org/2000/svg" xmlns:xlink="http://www.w3.org/1999/xlink" x="0px" y="0px"
	 viewBox="0 0 1000 355.8" style="enable-background:new 0 0 1000 355.8;" xml:space="preserve">
<style type="text/css">
	.st0{fill:#fff;}
	.st1{fill:#FFFFFF;}
	.st2{fill:url(#SVGID_1_);}
	.st3{fill:url(#SVGID_2_);}
	.st4{fill:#161616;}
	.st5{fill:url(#SVGID_3_);}
	.st6{fill:url(#SVGID_4_);}
</style>
<g>
	<g>
		<g>
			<path class="st0" d="M628.2,14.5C572.9,14.5,528,60.8,528,117.8c0,56.9,44.9,103.3,100.2,103.3c17.3,0,34.3-4.6,49.3-13.4
				c10.3-6,19.6-14,27.2-23.3v21.6c0,4.2,3.5,7.6,7.7,7.6h8.2c4.3,0,7.7-3.4,7.7-7.6v-88.1C728.3,60.8,683.4,14.5,628.2,14.5z
				 M628.2,197.4c-42.2,0-76.5-35.7-76.5-79.6c0-43.9,34.3-79.6,76.5-79.6c42.2,0,76.5,35.7,76.5,79.6
				C704.7,161.7,670.4,197.4,628.2,197.4z"/>
			<path class="st0" d="M114.9,14.5c-55.2,0-100.2,46.3-100.2,103.3c0,56.9,44.9,103.3,100.2,103.3c17.3,0,34.3-4.6,49.3-13.4
				c10.3-6,19.6-14,27.2-23.3V206c0,4.2,3.5,7.6,7.7,7.6h8.2c4.3,0,7.7-3.4,7.7-7.6v-88.2C215.1,60.8,170.2,14.5,114.9,14.5z
				 M191.4,117.8c0,43.9-34.3,79.6-76.5,79.6s-76.5-35.7-76.5-79.6c0-43.9,34.3-79.6,76.5-79.6S191.4,73.9,191.4,117.8z"/>
			<path class="st0" d="M371.3,14.5c-55.2,0-100.2,46.3-100.2,103.3c0,56.9,44.9,103.3,100.2,103.3c17.3,0,34.3-4.6,49.3-13.4
				c10.3-6,19.6-14,27.2-23.3v21.6c0,4.2,3.5,7.6,7.7,7.6h8.2c4.3,0,7.7-3.4,7.7-7.6v-88.1C471.5,60.8,426.5,14.5,371.3,14.5z
				 M447.8,117.8c0,43.9-34.3,79.6-76.5,79.6c-42.2,0-76.5-35.7-76.5-79.6c0-43.9,34.3-79.6,76.5-79.6
				C413.5,38.2,447.8,73.9,447.8,117.8z"/>
			<path class="st0" d="M977,14.5h-9.1c-4,0-7.3,3.3-7.3,7.3v37.4v5.6v53.1c0,43.9-34.3,79.6-76.5,79.6c-42.2,0-76.5-35.7-76.5-79.6
				V65.5V28.8c0-4-3.3-7.3-7.3-7.3h-9.1c-4,0-7.3,3.3-7.3,7.3v89c0,2.2,0.1,4.4,0.2,6.7c3.4,54.1,47.3,96.5,100,96.5
				c17.3,0,34.3-4.6,49.3-13.4c10.3-6,19.6-14,27.2-23.3v18.2c0,6.3,3.3,10.9,7.7,10.9h8.2c4.5,0,7.7-4.6,7.7-10.9v-84.8v-96
				C984.3,17.8,981,14.5,977,14.5z"/>
			<path class="st0" d="M207.6,255.3h-9.2c-3.6,0-6.7,2.7-7.2,6.3c-5,38.4-41.8,55.5-76.1,55.5c-26.5,0-59.5-10.7-72.7-40.9
				c-1.2-2.7-3.8-4.4-6.7-4.4h-9.8c-2.4,0-4.6,1.2-6,3.1c-1,1.4-1.4,3.2-1.3,4.8l-0.4,0.2l1.8,4.3c7.5,17.9,20.9,32.7,38.7,42.6
				c16.3,9.2,35.7,14,55.8,14c20.3,0,39.8-4.9,56.3-14.1c17.9-10,31.4-24.7,39-42.5l1.8-4.3l-0.2-0.1c1.8-5.4,3-11.1,3.4-16.7
				c0.2-2-0.5-4-1.9-5.5C211.6,256.2,209.6,255.3,207.6,255.3z"/>
		</g>
	</g>
	<g>
		<g>
			<g>
				<ellipse class="st1" cx="114.9" cy="118.2" rx="28.7" ry="29.8"/>
			</g>
		</g>
		<g>
			<g>
				<linearGradient id="SVGID_1_" gradientUnits="userSpaceOnUse" x1="94.2812" y1="138.8778" x2="135.6097" y2="97.5493">
					<stop  offset="0" style="stop-color:#DB4398"/>
					<stop  offset="0.5" style="stop-color:#7E54A2"/>
					<stop  offset="1" style="stop-color:#44C7F0"/>
				</linearGradient>
				<ellipse class="st2" cx="114.9" cy="118.2" rx="28.7" ry="29.8"/>
			</g>
		</g>
	</g>
</g>
</svg>
