<?xml version="1.0" encoding="utf-8"?>
<!-- Generator: Adobe Illustrator 24.3.0, SVG Export Plug-In . SVG Version: 6.00 Build 0)  -->
<svg version="1.1" id="Layer_1" xmlns="http://www.w3.org/2000/svg" xmlns:xlink="http://www.w3.org/1999/xlink" x="0px" y="0px"
	 viewBox="0 0 424.7 267" style="enable-background:new 0 0 424.7 267;" xml:space="preserve">
<style type="text/css">
	.st0{fill:#f1f1f1;}
</style>
<g>
	<g>
		<path class="st0" d="M212.3,71.8c-34,0-61.6,27.7-61.6,61.6c0,34.1,27.7,61.7,61.6,61.7c34,0,61.7-27.7,61.7-61.7
			C274,99.5,246.2,71.8,212.3,71.8z M254.4,162.6c-13.5,1.5-28,1.9-42.1,1.9c-14.1,0-28.6-0.4-42.2-1.9c-3.8-0.4-5.8-1.4-6.3-5.4
			c-0.7-7.8-0.7-15.7-0.7-23.7c0-7.9,0-15.8,0.7-23.6c0.5-4.1,2.5-5.1,6.3-5.4c13.6-1.5,28.1-1.9,42.2-1.9c14.1,0,28.6,0.4,42.1,1.9
			c4,0.4,5.9,1.4,6.4,5.4c0.6,7.8,0.6,15.7,0.6,23.6c0,8,0,15.9-0.6,23.7C260.3,161.2,258.3,162.2,254.4,162.6z"/>
	</g>
	<g>
		<path class="st0" d="M187.3,133.4c0-13.6,10.9-24.9,24.9-24.9c14.1,0,24.9,11.4,24.9,24.9c0,13.7-10.9,25.1-24.9,25.1
			C198.2,158.5,187.3,147.1,187.3,133.4z"/>
	</g>
</g>
</svg>
