<?xml version="1.0" encoding="utf-8"?>
<!-- Generator: Adobe Illustrator 24.3.0, SVG Export Plug-In . SVG Version: 6.00 Build 0)  -->
<svg version="1.1" id="Layer_1" xmlns="http://www.w3.org/2000/svg" xmlns:xlink="http://www.w3.org/1999/xlink" x="0px" y="0px"
	 viewBox="0 0 424.7 267" style="enable-background:new 0 0 424.7 267;" xml:space="preserve">
<style type="text/css">
	.st0{fill-rule:evenodd;clip-rule:evenodd;fill:#f1f1f1;}
</style>
<g id="logo-iteris">
	<path id="a-software-company" class="st0" d="M184.8,172c0.4,0,0.8,0,1.1,0c0.3,0,0.6-0.1,0.8-0.1v-3c-0.1-0.1-0.3-0.1-0.6-0.2
		c-0.3-0.1-0.6-0.1-1.1-0.1c-0.3,0-0.5,0-0.8,0.1c-0.3,0-0.5,0.1-0.8,0.2c-0.2,0.1-0.4,0.3-0.6,0.5s-0.2,0.5-0.2,0.9
		c0,0.3,0.1,0.6,0.2,0.8c0.1,0.2,0.3,0.4,0.4,0.5c0.2,0.1,0.4,0.2,0.7,0.3S184.5,172,184.8,172z M184.7,164c0.6,0,1,0.1,1.4,0.2
		c0.4,0.2,0.7,0.4,0.9,0.7c0.2,0.3,0.4,0.6,0.5,1c0.1,0.4,0.2,0.8,0.2,1.3v5.4c-0.1,0-0.3,0.1-0.5,0.1c-0.2,0-0.4,0.1-0.7,0.1
		c-0.3,0-0.6,0.1-0.9,0.1c-0.3,0-0.7,0-1,0c-0.4,0-0.9,0-1.2-0.1s-0.7-0.3-1-0.5c-0.3-0.2-0.5-0.5-0.7-0.8c-0.2-0.3-0.2-0.7-0.2-1.2
		c0-0.5,0.1-0.9,0.3-1.2s0.4-0.6,0.7-0.8c0.3-0.2,0.7-0.4,1.1-0.5c0.4-0.1,0.9-0.1,1.4-0.1c0.2,0,0.3,0,0.5,0s0.3,0,0.5,0.1
		c0.2,0,0.3,0.1,0.4,0.1c0.1,0,0.2,0.1,0.2,0.1v-0.5c0-0.3,0-0.6-0.1-0.9c0-0.3-0.1-0.5-0.3-0.8c-0.1-0.2-0.4-0.4-0.6-0.5
		c-0.3-0.1-0.6-0.2-1.1-0.2c-0.6,0-1.1,0-1.4,0.1s-0.5,0.2-0.7,0.2l-0.1-0.9c0.2-0.1,0.5-0.2,0.9-0.2
		C183.7,164.1,184.2,164,184.7,164z M196.4,172c0.6,0,1.1-0.1,1.5-0.3s0.6-0.5,0.6-1c0-0.2,0-0.4-0.1-0.6c-0.1-0.2-0.2-0.3-0.4-0.4
		c-0.2-0.1-0.4-0.3-0.6-0.4s-0.6-0.3-1-0.4c-0.3-0.1-0.6-0.3-0.9-0.4c-0.3-0.1-0.5-0.3-0.8-0.5c-0.2-0.2-0.4-0.4-0.5-0.7
		s-0.2-0.6-0.2-0.9c0-0.7,0.3-1.3,0.8-1.7s1.2-0.6,2.1-0.6c0.6,0,1.1,0,1.4,0.1s0.6,0.2,0.8,0.3l-0.2,1c-0.1-0.1-0.4-0.2-0.7-0.3
		c-0.3-0.1-0.8-0.2-1.4-0.2c-0.2,0-0.5,0-0.7,0.1s-0.4,0.1-0.6,0.2c-0.2,0.1-0.3,0.2-0.4,0.4s-0.1,0.4-0.1,0.6s0,0.4,0.1,0.6
		c0.1,0.2,0.2,0.3,0.4,0.4c0.2,0.1,0.4,0.2,0.6,0.4s0.5,0.2,0.8,0.4c0.3,0.1,0.6,0.3,0.9,0.4c0.3,0.1,0.6,0.3,0.8,0.5
		s0.4,0.4,0.6,0.7c0.1,0.3,0.2,0.6,0.2,1c0,0.8-0.3,1.4-0.9,1.8c-0.6,0.4-1.4,0.6-2.4,0.6c-0.7,0-1.3-0.1-1.7-0.2
		c-0.4-0.1-0.7-0.2-0.8-0.3l0.3-1c0,0,0.1,0.1,0.2,0.1c0.1,0,0.3,0.1,0.4,0.2c0.2,0.1,0.4,0.1,0.7,0.2
		C195.8,172,196.1,172,196.4,172z M209.1,168.5c0,0.7-0.1,1.3-0.3,1.8c-0.2,0.6-0.5,1-0.8,1.4c-0.3,0.4-0.8,0.7-1.2,0.9
		c-0.5,0.2-1,0.3-1.6,0.3s-1.1-0.1-1.6-0.3c-0.5-0.2-0.9-0.5-1.2-0.9c-0.3-0.4-0.6-0.9-0.8-1.4c-0.2-0.6-0.3-1.2-0.3-1.8
		c0-0.7,0.1-1.3,0.3-1.8c0.2-0.6,0.5-1,0.8-1.4c0.3-0.4,0.8-0.7,1.2-0.9c0.5-0.2,1-0.3,1.6-0.3s1.1,0.1,1.6,0.3
		c0.5,0.2,0.9,0.5,1.2,0.9c0.3,0.4,0.6,0.9,0.8,1.4C209,167.2,209.1,167.8,209.1,168.5z M208,168.5c0-1.1-0.2-1.9-0.7-2.6
		s-1.2-0.9-2-0.9s-1.5,0.3-2,0.9s-0.7,1.5-0.7,2.6c0,1.1,0.2,1.9,0.7,2.5s1.2,0.9,2,0.9s1.5-0.3,2-0.9S208,169.6,208,168.5z
		 M214.7,159.9c0.5,0,0.8,0,1.1,0.1c0.3,0.1,0.5,0.1,0.6,0.2l-0.2,0.9c-0.1-0.1-0.3-0.1-0.5-0.2s-0.5-0.1-0.9-0.1
		c-0.8,0-1.3,0.2-1.6,0.6c-0.3,0.4-0.5,1-0.5,1.9v0.9h3.4v0.9h-3.4v7.6h-1.1v-9.5c0-1.1,0.3-1.9,0.8-2.5
		C212.9,160.2,213.7,159.9,214.7,159.9z M219,164.2h3.4v0.9H219v4.5c0,0.5,0,0.9,0.1,1.2c0.1,0.3,0.2,0.5,0.4,0.7s0.3,0.3,0.6,0.3
		s0.5,0.1,0.7,0.1c0.4,0,0.8-0.1,1.1-0.2s0.5-0.2,0.6-0.3l0.3,0.9c-0.2,0.1-0.4,0.2-0.8,0.3c-0.4,0.1-0.8,0.2-1.2,0.2
		c-0.5,0-1-0.1-1.3-0.2c-0.4-0.1-0.6-0.3-0.9-0.6c-0.2-0.3-0.4-0.6-0.5-1s-0.1-0.9-0.1-1.5v-7.9l1.1-0.2V164.2z M230,164.2
		c0.1,0.6,0.2,1.1,0.4,1.8s0.3,1.3,0.5,1.9c0.2,0.6,0.4,1.3,0.6,1.9c0.2,0.6,0.4,1.2,0.6,1.8c0.2-0.4,0.4-0.9,0.6-1.5
		c0.2-0.6,0.4-1.2,0.6-1.9c0.2-0.7,0.4-1.3,0.6-2c0.2-0.7,0.3-1.3,0.5-1.9h1c-0.4,1.7-0.8,3.2-1.3,4.6c-0.5,1.4-1,2.7-1.5,3.9h-1
		c-0.2-0.4-0.3-0.8-0.5-1.3c-0.2-0.5-0.4-1-0.6-1.5c-0.2-0.5-0.4-1.1-0.6-1.7c-0.2-0.6-0.4-1.2-0.5-1.8c-0.2,0.6-0.3,1.2-0.5,1.8
		c-0.2,0.6-0.4,1.2-0.6,1.7c-0.2,0.5-0.4,1.1-0.6,1.5c-0.2,0.5-0.4,0.9-0.5,1.3h-1c-0.6-1.2-1.1-2.6-1.5-3.9
		c-0.5-1.4-0.9-2.9-1.3-4.6h1.1c0.1,0.6,0.3,1.2,0.5,1.9c0.2,0.7,0.4,1.3,0.6,2c0.2,0.7,0.4,1.3,0.6,1.9c0.2,0.6,0.4,1.1,0.6,1.5
		c0.2-0.6,0.4-1.1,0.6-1.8c0.2-0.6,0.4-1.3,0.6-1.9c0.2-0.6,0.4-1.3,0.5-1.9c0.2-0.6,0.3-1.2,0.4-1.8H230z M240.1,172
		c0.4,0,0.8,0,1.1,0c0.3,0,0.6-0.1,0.8-0.1v-3c-0.1-0.1-0.3-0.1-0.6-0.2c-0.3-0.1-0.6-0.1-1.1-0.1c-0.3,0-0.5,0-0.8,0.1
		c-0.3,0-0.5,0.1-0.8,0.2c-0.2,0.1-0.4,0.3-0.6,0.5s-0.2,0.5-0.2,0.9c0,0.3,0.1,0.6,0.2,0.8c0.1,0.2,0.3,0.4,0.4,0.5
		c0.2,0.1,0.4,0.2,0.7,0.3C239.5,172,239.8,172,240.1,172z M240,164c0.6,0,1,0.1,1.4,0.2s0.7,0.4,0.9,0.7c0.2,0.3,0.4,0.6,0.5,1
		c0.1,0.4,0.2,0.8,0.2,1.3v5.4c-0.1,0-0.3,0.1-0.5,0.1s-0.4,0.1-0.7,0.1c-0.3,0-0.6,0.1-0.9,0.1c-0.3,0-0.7,0-1,0
		c-0.4,0-0.9,0-1.2-0.1s-0.7-0.3-1-0.5s-0.5-0.5-0.7-0.8c-0.2-0.3-0.2-0.7-0.2-1.2c0-0.5,0.1-0.9,0.3-1.2c0.2-0.3,0.4-0.6,0.7-0.8
		c0.3-0.2,0.7-0.4,1.1-0.5s0.9-0.1,1.4-0.1c0.2,0,0.3,0,0.5,0s0.3,0,0.5,0.1c0.2,0,0.3,0.1,0.4,0.1c0.1,0,0.2,0.1,0.2,0.1v-0.5
		c0-0.3,0-0.6-0.1-0.9c0-0.3-0.1-0.5-0.3-0.8c-0.1-0.2-0.4-0.4-0.6-0.5c-0.3-0.1-0.6-0.2-1.1-0.2c-0.6,0-1.1,0-1.4,0.1
		c-0.3,0.1-0.5,0.2-0.7,0.2l-0.1-0.9c0.2-0.1,0.5-0.2,0.9-0.2C239,164.1,239.5,164,240,164z M248.9,164.1c0.3,0,0.7,0,1,0.1
		c0.3,0.1,0.5,0.1,0.6,0.2l-0.2,0.9c-0.1,0-0.3-0.1-0.5-0.1c-0.3,0-0.6-0.1-1.1-0.1c-0.5,0-0.8,0-1.1,0.1c-0.3,0.1-0.5,0.1-0.5,0.2
		v7.5H246v-8.1c0.3-0.1,0.7-0.2,1.1-0.4C247.6,164.1,248.2,164.1,248.9,164.1z M251.8,168.5c0-0.7,0.1-1.4,0.3-2
		c0.2-0.6,0.5-1,0.8-1.4c0.3-0.4,0.7-0.7,1.2-0.8c0.4-0.2,0.9-0.3,1.4-0.3c1,0,1.9,0.3,2.5,1c0.6,0.7,0.9,1.7,0.9,3.2
		c0,0.1,0,0.2,0,0.3c0,0.1,0,0.2,0,0.2h-6c0,1,0.3,1.9,0.8,2.4c0.5,0.6,1.2,0.8,2.3,0.8c0.6,0,1-0.1,1.4-0.2
		c0.3-0.1,0.6-0.2,0.7-0.3l0.2,0.9c-0.2,0.1-0.4,0.2-0.9,0.3s-0.9,0.2-1.5,0.2c-0.7,0-1.4-0.1-1.9-0.3c-0.5-0.2-1-0.5-1.3-0.9
		c-0.3-0.4-0.6-0.9-0.7-1.4C251.9,169.7,251.8,169.1,251.8,168.5z M257.9,167.8c0-0.9-0.2-1.6-0.6-2.1s-1-0.7-1.7-0.7
		c-0.4,0-0.7,0.1-1,0.2s-0.6,0.4-0.8,0.6c-0.2,0.3-0.4,0.6-0.5,0.9c-0.1,0.3-0.2,0.7-0.2,1.1H257.9z M269,172.9
		c-0.7,0-1.2-0.1-1.7-0.3c-0.5-0.2-0.9-0.5-1.3-0.9c-0.3-0.4-0.6-0.9-0.8-1.4c-0.2-0.5-0.3-1.1-0.3-1.8c0-0.7,0.1-1.3,0.3-1.8
		c0.2-0.6,0.4-1,0.8-1.4c0.3-0.4,0.7-0.7,1.2-0.9c0.5-0.2,1-0.3,1.6-0.3c0.5,0,0.9,0,1.3,0.1s0.7,0.2,0.9,0.3l-0.3,0.9
		c-0.2-0.1-0.5-0.2-0.7-0.3c-0.3-0.1-0.6-0.1-1.1-0.1c-0.9,0-1.7,0.3-2.1,0.9c-0.5,0.6-0.7,1.5-0.7,2.6c0,0.5,0.1,1,0.2,1.4
		s0.3,0.8,0.5,1.1c0.2,0.3,0.6,0.5,1,0.7c0.4,0.2,0.9,0.3,1.4,0.3c0.5,0,0.8-0.1,1.2-0.2c0.3-0.1,0.5-0.2,0.7-0.3l0.2,0.9
		c-0.2,0.1-0.5,0.2-0.9,0.3S269.5,172.9,269,172.9z M280.5,168.5c0,0.7-0.1,1.3-0.3,1.8c-0.2,0.6-0.5,1-0.8,1.4
		c-0.3,0.4-0.8,0.7-1.2,0.9c-0.5,0.2-1,0.3-1.6,0.3c-0.6,0-1.1-0.1-1.6-0.3c-0.5-0.2-0.9-0.5-1.2-0.9c-0.3-0.4-0.6-0.9-0.8-1.4
		c-0.2-0.6-0.3-1.2-0.3-1.8c0-0.7,0.1-1.3,0.3-1.8c0.2-0.6,0.5-1,0.8-1.4c0.3-0.4,0.8-0.7,1.2-0.9c0.5-0.2,1-0.3,1.6-0.3
		c0.6,0,1.1,0.1,1.6,0.3c0.5,0.2,0.9,0.5,1.2,0.9c0.3,0.4,0.6,0.9,0.8,1.4C280.4,167.2,280.5,167.8,280.5,168.5z M279.3,168.5
		c0-1.1-0.2-1.9-0.7-2.6c-0.5-0.6-1.2-0.9-2-0.9s-1.5,0.3-2,0.9s-0.7,1.5-0.7,2.6c0,1.1,0.2,1.9,0.7,2.5s1.2,0.9,2,0.9
		s1.5-0.3,2-0.9C279.1,170.4,279.3,169.6,279.3,168.5z M283,164.5c0.3-0.1,0.7-0.2,1.2-0.3c0.5-0.1,1.2-0.2,2-0.2
		c1.1,0,1.8,0.3,2.3,0.9c0.1,0,0.2-0.1,0.3-0.2c0.2-0.1,0.4-0.2,0.6-0.3c0.2-0.1,0.5-0.2,0.8-0.3c0.3-0.1,0.7-0.1,1.1-0.1
		c0.6,0,1.2,0.1,1.6,0.3c0.4,0.2,0.7,0.5,0.9,0.8c0.2,0.3,0.4,0.8,0.4,1.2c0.1,0.5,0.1,1,0.1,1.6v4.8h-1.1v-4.4c0-0.6,0-1-0.1-1.5
		c0-0.4-0.1-0.8-0.3-1c-0.1-0.3-0.4-0.5-0.6-0.6c-0.3-0.1-0.6-0.2-1.1-0.2c-0.3,0-0.6,0-0.9,0.1c-0.3,0.1-0.5,0.1-0.7,0.2
		c-0.2,0.1-0.4,0.2-0.5,0.3c-0.1,0.1-0.2,0.2-0.3,0.2c0.1,0.3,0.2,0.6,0.2,1c0,0.4,0.1,0.7,0.1,1.1v4.9h-1.1v-4.4c0-0.6,0-1-0.1-1.5
		c0-0.4-0.2-0.8-0.3-1s-0.4-0.5-0.6-0.6c-0.3-0.1-0.6-0.2-1.1-0.2c-0.5,0-0.9,0-1.3,0.1c-0.4,0.1-0.6,0.1-0.7,0.1v7.5H283V164.5z
		 M298.4,171.2c0.1,0.1,0.2,0.2,0.4,0.2c0.1,0.1,0.3,0.2,0.5,0.2s0.4,0.1,0.6,0.2c0.2,0,0.5,0.1,0.7,0.1c0.5,0,1-0.1,1.3-0.3
		c0.4-0.2,0.6-0.4,0.9-0.7c0.2-0.3,0.4-0.7,0.5-1.1c0.1-0.4,0.1-0.9,0.1-1.3c0-1.1-0.3-2-0.8-2.6c-0.6-0.6-1.3-0.9-2.2-0.9
		c-0.5,0-0.9,0-1.3,0.1c-0.3,0-0.6,0.1-0.7,0.2V171.2z M298.4,175.8h-1.1v-11.3c0.3-0.1,0.7-0.2,1.2-0.3c0.5-0.1,1.1-0.1,1.9-0.1
		c0.6,0,1.2,0.1,1.7,0.3s0.9,0.5,1.3,0.9c0.4,0.4,0.7,0.9,0.9,1.4c0.2,0.6,0.3,1.2,0.3,1.9c0,0.6-0.1,1.2-0.3,1.8
		c-0.2,0.5-0.4,1-0.7,1.4c-0.3,0.4-0.7,0.7-1.2,0.9c-0.5,0.2-1,0.3-1.6,0.3c-0.6,0-1-0.1-1.5-0.2c-0.4-0.2-0.7-0.3-0.9-0.5V175.8z
		 M309.8,172c0.4,0,0.8,0,1.1,0c0.3,0,0.6-0.1,0.8-0.1v-3c-0.1-0.1-0.3-0.1-0.6-0.2s-0.6-0.1-1.1-0.1c-0.3,0-0.5,0-0.8,0.1
		c-0.3,0-0.5,0.1-0.8,0.2s-0.4,0.3-0.6,0.5s-0.2,0.5-0.2,0.9c0,0.3,0.1,0.6,0.2,0.8c0.1,0.2,0.3,0.4,0.4,0.5
		c0.2,0.1,0.4,0.2,0.7,0.3C309.1,172,309.4,172,309.8,172z M309.7,164c0.6,0,1,0.1,1.4,0.2s0.7,0.4,0.9,0.7c0.2,0.3,0.4,0.6,0.5,1
		c0.1,0.4,0.2,0.8,0.2,1.3v5.4c-0.1,0-0.3,0.1-0.5,0.1s-0.4,0.1-0.7,0.1c-0.3,0-0.6,0.1-0.9,0.1c-0.3,0-0.7,0-1,0
		c-0.4,0-0.9,0-1.2-0.1c-0.4-0.1-0.7-0.3-1-0.5c-0.3-0.2-0.5-0.5-0.7-0.8c-0.2-0.3-0.2-0.7-0.2-1.2c0-0.5,0.1-0.9,0.3-1.2
		c0.2-0.3,0.4-0.6,0.7-0.8c0.3-0.2,0.7-0.4,1.1-0.5s0.9-0.1,1.4-0.1c0.2,0,0.3,0,0.5,0c0.2,0,0.3,0,0.5,0.1c0.2,0,0.3,0.1,0.4,0.1
		c0.1,0,0.2,0.1,0.2,0.1v-0.5c0-0.3,0-0.6-0.1-0.9c0-0.3-0.1-0.5-0.3-0.8c-0.1-0.2-0.4-0.4-0.6-0.5c-0.3-0.1-0.6-0.2-1.1-0.2
		c-0.6,0-1.1,0-1.4,0.1s-0.5,0.2-0.7,0.2l-0.1-0.9c0.2-0.1,0.5-0.2,0.9-0.2S309.1,164,309.7,164z M315.7,164.5
		c0.3-0.1,0.7-0.2,1.3-0.3s1.2-0.2,2-0.2c0.6,0,1.2,0.1,1.6,0.3c0.4,0.2,0.8,0.5,1,0.8c0.3,0.3,0.4,0.8,0.5,1.2
		c0.1,0.5,0.2,1,0.2,1.6v4.8h-1.1v-4.4c0-0.6,0-1.1-0.1-1.5c-0.1-0.4-0.2-0.8-0.4-1c-0.2-0.3-0.4-0.5-0.8-0.6s-0.7-0.2-1.2-0.2
		c-0.5,0-0.9,0-1.3,0.1c-0.4,0.1-0.6,0.1-0.7,0.1v7.5h-1.1V164.5z M327.4,172.9c-0.4-0.7-0.7-1.4-1-2.1s-0.6-1.5-0.9-2.2
		c-0.3-0.7-0.6-1.5-0.8-2.2s-0.4-1.5-0.6-2.2h1.1c0.1,0.5,0.3,1.1,0.5,1.7c0.2,0.6,0.4,1.2,0.6,1.9c0.2,0.6,0.5,1.3,0.8,2
		s0.6,1.4,0.9,2c0.2-0.7,0.5-1.3,0.6-1.9c0.2-0.6,0.4-1.2,0.5-1.8c0.2-0.6,0.3-1.2,0.5-1.8s0.3-1.3,0.5-2h1.1
		c-0.3,1.6-0.7,3.1-1.2,4.7s-0.9,2.9-1.5,4.1c-0.2,0.5-0.4,0.9-0.6,1.3c-0.2,0.4-0.5,0.7-0.7,0.9c-0.3,0.2-0.6,0.4-0.9,0.5
		c-0.4,0.1-0.8,0.2-1.3,0.2c-0.3,0-0.5,0-0.7-0.1c-0.2-0.1-0.4-0.1-0.4-0.1l0.2-0.9c0,0,0.2,0.1,0.4,0.1c0.2,0.1,0.4,0.1,0.6,0.1
		c0.3,0,0.6,0,0.8-0.1c0.2-0.1,0.5-0.2,0.7-0.3c0.2-0.2,0.4-0.4,0.5-0.6C327.1,173.6,327.2,173.3,327.4,172.9z"/>
	<path id="Path" class="st0" d="M184.2,108.2c-1,0-1.8-0.3-2.5-1c-0.7-0.6-1-1.5-1-2.6c0-1.1,0.3-1.9,1-2.6c0.7-0.6,1.5-1,2.5-1
		c1,0,1.8,0.3,2.5,1c0.7,0.6,1,1.5,1,2.6c0,1.1-0.3,1.9-1,2.6C186,107.9,185.2,108.2,184.2,108.2z"/>
	<path id="Path_1_" class="st0" d="M293.5,108.2c-1,0-1.8-0.3-2.5-1c-0.7-0.6-1-1.5-1-2.6c0-1.1,0.3-1.9,1-2.6c0.7-0.6,1.5-1,2.5-1
		c1,0,1.8,0.3,2.5,1c0.7,0.6,1,1.5,1,2.6c0,1.1-0.3,1.9-1,2.6C295.3,107.9,294.4,108.2,293.5,108.2z"/>
	<polygon id="Path_2_" class="st0" points="187.3,152.9 181.5,152.9 181.5,116.6 187.3,116.6 	"/>
	<path id="Path_3_" class="st0" d="M204.9,116.5h13.8v5.3h-13.8v16.4c0,1.8,0.1,3.2,0.4,4.4c0.3,1.2,0.7,2.1,1.3,2.7
		c0.6,0.7,1.3,1.1,2.1,1.4c0.8,0.3,1.8,0.4,2.9,0.4c2,0,3.5-0.2,4.7-0.6c1.2-0.4,2-0.7,2.5-0.9l1.3,5.3c-0.7,0.3-1.8,0.7-3.4,1.2
		c-1.6,0.5-3.5,0.7-5.6,0.7c-2.5,0-4.5-0.3-6.1-0.9c-1.6-0.6-2.9-1.5-3.9-2.8c-1-1.2-1.7-2.7-2.1-4.5s-0.6-3.9-0.6-6.3v-31.7
		l6.5-1.1V116.5z"/>
	<path id="Combined-Shape" class="st0" d="M224.5,134.4c0-3.1,0.5-5.9,1.4-8.2s2.1-4.3,3.7-5.8c1.5-1.5,3.3-2.7,5.3-3.5
		c2-0.8,4-1.2,6.1-1.2c4.8,0,8.6,1.5,11.1,4.5c2.6,3,3.9,7.5,3.9,13.6v1.1c0,0.4,0,0.8-0.1,1.2h-24.6c0.3,3.7,1.4,6.5,3.3,8.4
		c1.9,1.9,4.8,2.9,8.9,2.9c2.3,0,4.2-0.2,5.7-0.6c1.5-0.4,2.7-0.8,3.5-1.1l0.9,5.3c-0.8,0.4-2.2,0.8-4.1,1.3c-2,0.5-4.2,0.7-6.7,0.7
		c-3.1,0-5.8-0.5-8.1-1.4c-2.3-0.9-4.2-2.2-5.6-3.9s-2.6-3.6-3.3-5.8S224.5,137.1,224.5,134.4z M249.1,130.9c0-2.9-0.7-5.2-2.2-7.1
		c-1.5-1.8-3.6-2.8-6.2-2.8c-1.5,0-2.8,0.3-3.9,0.9c-1.1,0.6-2.1,1.3-2.9,2.2c-0.8,0.9-1.4,2-1.8,3.1c-0.4,1.2-0.7,2.4-0.9,3.6
		H249.1z"/>
	<path id="Path_4_" class="st0" d="M277.6,116.1c0.5,0,1.2,0,1.8,0.1c0.7,0.1,1.4,0.2,2.1,0.3c0.7,0.1,1.3,0.2,1.8,0.3
		c0.6,0.1,1,0.2,1.2,0.3l-1.1,5.6c-0.5-0.2-1.3-0.4-2.5-0.7c-1.1-0.3-2.6-0.4-4.4-0.4c-1.2,0-2.3,0.1-3.5,0.4
		c-1.1,0.3-1.9,0.4-2.3,0.5v30.2h-6.3v-34.4c1.5-0.6,3.3-1.1,5.5-1.6C272.4,116.4,274.9,116.1,277.6,116.1z"/>
	<polygon id="Path_5_" class="st0" points="296.1,152.9 290.4,152.9 290.4,116.6 296.1,116.6 	"/>
	<path id="Path_6_" class="st0" d="M316.9,147.5c2.6,0,4.5-0.3,5.8-1s1.9-1.8,1.9-3.3c0-1.5-0.6-2.8-1.9-3.7
		c-1.2-0.9-3.3-1.9-6.1-3.1c-1.4-0.5-2.7-1.1-4-1.7c-1.3-0.6-2.3-1.2-3.3-2s-1.6-1.7-2.2-2.8c-0.5-1.1-0.8-2.4-0.8-4
		c0-3.1,1.2-5.6,3.5-7.5s5.5-2.8,9.6-2.8c1,0,2,0.1,3,0.2c1,0.1,1.9,0.3,2.8,0.4c0.9,0.2,1.6,0.3,2.3,0.5c0.7,0.2,1.2,0.3,1.5,0.5
		l-1.2,5.5c-0.7-0.4-1.8-0.7-3.2-1.1c-1.5-0.4-3.2-0.6-5.3-0.6c-1.8,0-3.3,0.4-4.7,1.1c-1.3,0.7-2,1.8-2,3.3c0,0.8,0.1,1.5,0.4,2
		c0.3,0.6,0.8,1.1,1.4,1.6c0.6,0.5,1.4,0.9,2.3,1.3s2,0.8,3.3,1.3c1.7,0.6,3.2,1.3,4.5,1.9c1.3,0.6,2.5,1.3,3.4,2.1
		c0.9,0.8,1.7,1.8,2.2,3c0.5,1.2,0.8,2.6,0.8,4.3c0,3.3-1.2,5.8-3.7,7.4c-2.5,1.7-5.9,2.5-10.5,2.5c-3.2,0-5.6-0.3-7.4-0.8
		c-1.8-0.5-3-0.9-3.6-1.2l1.2-5.5c0.7,0.3,1.9,0.7,3.5,1.2S314.3,147.5,316.9,147.5z"/>
	<g id="bumerangues">
		<g id="Group" transform="translate(16.000000, 16.000000)">
			<path id="Combined-Shape_1_" class="st0" d="M90.6,134.8c4.9,8.3,17.8,13.6,28.3,16.6c4.4,1.2,13.4,2.9,14,2.9
				c4.6,0.8,2.5,3.2,0.1,3c-0.6,0-1.1,0-1.6,0c-1.7,0-5.6-0.3-6.8-0.3c-15.1-0.7-38.9-5-45.1-15.4c-4.6-7.8-2.1-22.1,2.1-34.8
				c3.7-11,8.8-19.7,9-20.1c1.4-2.9,3.4-1.5,2.5,1.2c-1.9,6-2.3,7.9-3,10.4C87.8,107.7,84.5,124.7,90.6,134.8z"/>
			<path id="Combined-Shape_2_" class="st0" d="M131,98.4c-4.9-8.3-17.8-13.6-28.3-16.6c-4.4-1.2-13.4-2.9-14-2.9
				c-4.6-0.8-2.5-3.2-0.1-3c0.6,0,1.1,0,1.6,0c1.7,0,5.6,0.3,6.8,0.3c15.1,0.7,38.9,5,45.1,15.4c4.6,7.8,2.1,22.1-2.1,34.8
				c-3.7,11-8.8,19.7-9,20.1c-1.4,2.9-3.4,1.5-2.5-1.2c1.9-6,2.3-7.9,3-10.4C133.7,125.5,137,108.5,131,98.4z"/>
		</g>
	</g>
</g>
</svg>
