<?xml version="1.0" encoding="utf-8"?>
<!-- Generator: Adobe Illustrator 24.3.0, SVG Export Plug-In . SVG Version: 6.00 Build 0)  -->
<svg version="1.1" id="Layer_1" xmlns="http://www.w3.org/2000/svg" xmlns:xlink="http://www.w3.org/1999/xlink" x="0px" y="0px"
	 viewBox="0 0 424.7 267" style="enable-background:new 0 0 424.7 267;" xml:space="preserve">
<style type="text/css">
	.st0{fill:#FFFFFF;}
</style>
<g>
	<path class="st0" d="M170.7,134.7c-0.8-0.1-15.7,8.4-15.7,8.4s23.9,5,58.7,15.4c0,0,6.9-9.8,11.8-15.2
		C225.4,143.2,205.3,139.5,170.7,134.7"/>
	<path class="st0" d="M143.1,133.7c11.8-2,24,0.3,24,0.3s-19.3,9.2-37.4,20.6c0,0-15.2-4.6-26.3-5.7
		C103.3,148.9,131.6,135.7,143.1,133.7"/>
	<path class="st0" d="M184.7,153.6c0,0,11.3,3,26.8,8.3c0,0-9.9,14.6-13.4,21.5c0,0-9.9-5.7-28.5-13.9
		C169.6,169.4,173.5,165.2,184.7,153.6"/>
	<path class="st0" d="M133.9,156c0,0,7.5-5.3,17.9-11.1c0,0,12,2.4,29.5,7.6l-15.7,15.1c0,0-9.2-3.8-17-6.7
		C140.9,158.2,133.9,156,133.9,156"/>
	<path class="st0" d="M134.3,133l-0.5,0.3l-12.1,0.2l-0.3-0.4l2.2-11.3l1.5-7.7l3.2-15.4l-11,22.8l-5.3,11.5l-0.5,0.3l-10,0.2
		l-0.4-0.4l-0.4-8.4l-1.2-26l-1.7,6.8L95,115.9L90.9,133l-0.4,0.3c-4.7,0-6.1,0.1-10.4,0.2l-0.3-0.4l3.9-13.9l4.4-16.1l3.7-14
		l0.4-0.4c7.9,0,9.7,0,17.3-0.2l0.4,0.4l0.3,10l0.3,4.6l0.6,12.3l8-17.1c1-2.1,4.1-8.8,4.6-9.7l0.4-0.4c7.4,0,9.2,0,17.2-0.2
		l0.3,0.4l-2.4,14.2l-2.8,17.1L134.3,133z"/>
	<path class="st0" d="M170.8,126.3c-1.6,2.5-3.3,3.9-5.4,5c0,0-0.1,0.1-0.4,0.2c-0.2,0-0.3,0.1-0.4,0.1c-5.2-0.8-7.5-0.8-9.8-0.8
		c-2.3-0.1-5.9-0.1-9.8,0.6c-0.1,0-0.3,0-0.4,0c-0.1,0-0.3-0.1-0.3-0.1c-3.3-2.3-5-5.8-5-11.1c0-5.1,1.8-11.2,5.3-15.3
		c4.5-5.3,10.4-6,14.6-6c4.3,0,7.5,1,9,1.8c6.3,3.3,6.3,10.5,6.3,12c0,2.3-0.2,4.5-0.7,6.6C173,122,171.8,124.7,170.8,126.3
		 M161.7,110.7c0-2.5-1-4.1-3-4.1c-2.5,0-3.7,2.7-4,3.2c-1.6,3-2.7,9.4-2.7,12c0,1.1,0,4.4,3,4.4c3.3,0,5.1-4.4,6.1-9.7
		C161.6,113.5,161.7,111,161.7,110.7"/>
	<path class="st0" d="M173.1,130.3l2.3-8l0.6-0.2c1,1.1,3.7,4.2,8.7,4.2c2,0,4.4-0.6,4.4-2.6c0-1.7-1.5-2.5-3.9-3.7l-1.3-0.7
		c-2.9-1.6-6.3-3.5-6.3-8.7c0-2.9,1.1-5.6,3.1-7.7c2.3-2.5,6.2-4.2,12.2-4.2c5.1,0,7.9,1.1,11.3,2.6l0.3,0.6c-1.1,3.4-1.3,4.4-2.2,8
		l-0.6,0.1c-0.5-0.6-1-1.3-1.6-1.8c-1.5-1.2-3.8-2-5.8-2c-3.1,0-3.9,1.5-3.9,2.3c0,1.4,1.6,2.2,3.2,3l1.3,0.6
		c3.6,1.9,7.5,4.1,7.5,9.9c0,3.7-1.8,6.1-2.8,7.3c-4.2,4.7-10.6,4.9-13.3,4.9c-7.2,0-10.7-2-12.8-3.2L173.1,130.3z"/>
	<path class="st0" d="M240.1,111.8c-1.1,4.4-2.2,8.9-3,13.3c-0.5,2.5-0.9,5.1-1.3,7.7l-0.4,0.4l-11.7,0.2l-0.3-0.4l0.5-2.9
		c-2.5,2.5-5.9,3.8-9.5,3.8c-3,0-4.9-1.1-5.9-1.9c-4.2-3.2-4.3-8.6-4.3-10.6c0-7.7,3.7-13.4,6.5-16.1c6.1-6,14-6.1,19.9-6.1h12
		l0.4,0.5L240.1,111.8z M228.7,107.6c-2-0.1-4.6-0.1-6.8,1.8c-1.8,1.5-4.3,5.4-4.3,11c0,3.2,1.5,5.1,4,5.1c1.4,0,2.3-0.6,3.3-1.3
		L228.7,107.6z"/>
	<path class="st0" d="M255.9,121c-1.3,6.2-1.5,7.5-2.2,12l-0.4,0.3l-13.5,0.2l-0.3-0.4c2.2-8,2.5-9.4,4.2-17l0.6-2.7
		c1.3-6.1,1.5-7.3,2.2-12.3l0.4-0.5c6.4-0.8,7.9-1.1,13.6-2.2l0.4,0.5l-4.4,18.5L255.9,121z M261.7,94.1l-0.5,0.4l-12.5,1.8
		l-0.4-0.5l2.2-10.1l0.5-0.4l12.7-1.7l0.4,0.4L261.7,94.1z"/>
	<path class="st0" d="M285.9,123.2c-1.3,4.6-1.4,5.4-2.2,9l-0.5,0.4c-2.3,0.8-4.6,1.4-7.8,1.4c-10.6,0-15.8-6.3-15.8-15.6
		c0-9.4,6.6-19.8,20.1-19.8c5.9,0,8.5,1.6,10.1,2.6l0.1,0.5l-2.5,8.5l-0.6,0.1c-1.5-1.9-3.2-3-5.6-3c-4.3,0-8.4,4-8.4,10.7
		c0,3.5,1.7,7,6.5,7c3,0,4.8-1.3,6.1-2.2L285.9,123.2z"/>
	<path class="st0" d="M300.3,102.7c0,2.3-1.8,4.1-4.1,4.1c-2.3,0-4.1-1.8-4.1-4.1c0-2.3,1.8-4.1,4.1-4.1
		C298.5,98.6,300.3,100.4,300.3,102.7 M292.5,102.7c0,2.1,1.6,3.8,3.7,3.8c2.1,0,3.7-1.7,3.7-3.8c0-2.1-1.6-3.8-3.7-3.8
		C294.1,98.9,292.5,100.5,292.5,102.7 M294.7,100.2h1.8c1.1,0,1.6,0.5,1.6,1.3c0,0.8-0.6,1.2-1.2,1.3l1.4,2.2h-0.5l-1.5-2.2h-1.3
		v2.2h-0.4V100.2z M295.1,102.5h1c0.7,0,1.6-0.1,1.6-0.9c0-0.8-0.7-1-1.2-1h-1.3V102.5z"/>
	<path class="st0" d="M333.7,153.8c-0.4,1.3-1.1,2.3-2,2.9c-0.9,0.6-2.1,0.9-3.4,0.9c-0.7,0-1.4-0.1-2-0.3c-0.6-0.2-1.1-0.6-1.6-1
		c-0.4-0.4-0.8-0.9-1-1.5c-0.2-0.6-0.4-1.3-0.4-2.1c0-0.9,0.1-1.7,0.4-2.6c0.3-0.8,0.7-1.6,1.2-2.2c0.5-0.7,1.2-1.2,2-1.6
		c0.8-0.4,1.7-0.6,2.7-0.6c1,0,1.8,0.2,2.4,0.5c0.6,0.3,1.1,0.8,1.5,1.3c0.3,0.5,0.6,1.1,0.7,1.7c0.1,0.6,0.2,1.2,0.2,1.7
		c0,0.3,0,0.5,0,0.8c0,0.2-0.1,0.4-0.1,0.6h-8.4c0,0.1,0,0.3,0,0.4c0,0.1,0,0.3,0,0.3c0,0.8,0.2,1.4,0.6,1.9
		c0.4,0.5,1.1,0.7,2.1,0.7c0.7,0,1.2-0.2,1.7-0.5c0.5-0.3,0.8-0.8,1-1.4H333.7z M331.9,150.7c0,0,0-0.2,0-0.7c0-0.6-0.2-1.2-0.6-1.6
		c-0.4-0.4-1-0.6-1.7-0.6c-0.9,0-1.7,0.3-2.2,0.8c-0.6,0.6-1,1.3-1.2,2.1H331.9z"/>
	<polygon class="st0" points="231.2,141.7 241.5,141.7 241,144.1 233.4,144.1 232.6,148.2 239,148.2 238.5,150.4 232.1,150.4 
		230.7,157.3 228,157.3 	"/>
	<path class="st0" d="M249.7,153.8c-0.4,1.3-1.1,2.3-2,2.9c-0.9,0.6-2.1,0.9-3.4,0.9c-0.7,0-1.4-0.1-2-0.3c-0.6-0.2-1.1-0.6-1.6-1
		c-0.4-0.4-0.8-0.9-1-1.5c-0.2-0.6-0.4-1.3-0.4-2.1c0-0.9,0.1-1.7,0.4-2.6c0.3-0.8,0.7-1.6,1.2-2.2c0.5-0.7,1.2-1.2,2-1.6
		c0.8-0.4,1.7-0.6,2.7-0.6c1,0,1.8,0.2,2.4,0.5c0.6,0.3,1.1,0.8,1.5,1.3c0.3,0.5,0.6,1.1,0.7,1.7c0.1,0.6,0.2,1.2,0.2,1.7
		c0,0.3,0,0.5,0,0.8c0,0.2-0.1,0.4-0.1,0.6h-8.4c0,0.1,0,0.3,0,0.4c0,0.1,0,0.3,0,0.3c0,0.8,0.2,1.4,0.6,1.9
		c0.4,0.5,1.1,0.7,2.1,0.7c0.7,0,1.2-0.2,1.7-0.5c0.5-0.3,0.8-0.8,1-1.4H249.7z M247.9,150.7c0,0,0-0.2,0-0.7c0-0.6-0.2-1.2-0.6-1.6
		c-0.4-0.4-1-0.6-1.7-0.6c-0.9,0-1.7,0.3-2.2,0.8c-0.6,0.6-1,1.3-1.2,2.1H247.9z"/>
	<path class="st0" d="M252.9,146h2.4l-0.5,2.2l0,0c0.2-0.3,0.4-0.6,0.6-0.9c0.3-0.3,0.5-0.6,0.8-0.8c0.3-0.2,0.6-0.4,1-0.6
		c0.4-0.2,0.9-0.2,1.3-0.2c0.5,0,0.8,0.1,0.8,0.1l-0.5,2.3c0,0-0.1,0-0.3,0c-0.1,0-0.3,0-0.4,0c-0.6,0-1.2,0.1-1.7,0.3
		c-0.5,0.2-0.9,0.5-1.2,0.9c-0.3,0.4-0.6,0.8-0.8,1.4c-0.2,0.5-0.4,1-0.5,1.6l-1,5h-2.5L252.9,146z"/>
	<path class="st0" d="M263,142.7h2.4l-0.7,3.4h2.2l-0.4,1.9h-2.2l-1.2,5.5c-0.1,0.2-0.1,0.5-0.2,0.7c0,0.2-0.1,0.4-0.1,0.5
		c0,0.2,0.1,0.4,0.2,0.6c0.1,0.2,0.4,0.2,0.7,0.2c0.2,0,0.4,0,0.6,0s0.5,0,0.7-0.1l-0.4,1.8c-0.3,0.1-0.7,0.1-1,0.2
		c-0.4,0-0.7,0.1-1,0.1c-0.5,0-0.8-0.1-1.1-0.2c-0.3-0.1-0.5-0.3-0.7-0.5c-0.2-0.2-0.3-0.4-0.3-0.7c-0.1-0.3-0.1-0.5-0.1-0.8
		c0-0.2,0-0.5,0.1-0.7c0-0.3,0.1-0.4,0.1-0.5l1.3-6.2h-2l0.4-1.9h2L263,142.7z"/>
	<path class="st0" d="M268.8,146h2.5l-2.3,11.3h-2.5L268.8,146z M269.7,141.7h2.5l-0.5,2.4h-2.5L269.7,141.7z"/>
	<polygon class="st0" points="274.9,141.7 277.4,141.7 274.2,157.3 271.7,157.3 	"/>
	<path class="st0" d="M279.3,146h2.5l-2.3,11.3H277L279.3,146z M280.2,141.7h2.5l-0.5,2.4h-2.5L280.2,141.7z"/>
	<polygon class="st0" points="284,146 293.1,146 292.6,147.8 285.2,155.3 291.6,155.3 291.2,157.3 281.4,157.3 281.9,155.5 
		289.3,148 283.6,148 	"/>
	<path class="st0" d="M302.5,154c0,0.2-0.1,0.4-0.1,0.6c-0.1,0.2-0.1,0.4-0.1,0.5c0,0.2,0,0.3,0.1,0.4c0.1,0.1,0.2,0.1,0.4,0.1
		c0.1,0,0.3,0,0.4-0.1c0.1,0,0.3-0.1,0.4-0.1l-0.4,1.8c-0.3,0.1-0.6,0.1-1,0.2c-0.3,0.1-0.6,0.1-1,0.1c-0.4,0-0.8-0.1-1-0.4
		c-0.3-0.3-0.4-0.6-0.5-1c-0.5,0.5-1.1,0.9-1.7,1.1c-0.7,0.2-1.4,0.3-2,0.3c-0.5,0-0.9-0.1-1.3-0.2c-0.4-0.1-0.8-0.3-1.1-0.6
		c-0.3-0.2-0.6-0.6-0.8-0.9c-0.2-0.4-0.3-0.8-0.3-1.3c0-0.7,0.1-1.3,0.4-1.8c0.3-0.5,0.6-0.9,1-1.2c0.4-0.3,0.9-0.5,1.5-0.7
		c0.6-0.1,1.2-0.2,1.8-0.3c0.8-0.1,1.7-0.1,2.5-0.2c0.5,0,0.8-0.2,1-0.4c0.2-0.3,0.3-0.6,0.3-1c0-0.5-0.2-0.9-0.6-1.1
		c-0.4-0.2-0.8-0.3-1.3-0.3c-0.7,0-1.3,0.1-1.8,0.4c-0.5,0.2-0.8,0.7-1,1.4H294c0.1-0.7,0.4-1.3,0.7-1.8c0.3-0.5,0.7-0.9,1.2-1.2
		c0.5-0.3,1-0.5,1.6-0.6c0.6-0.1,1.2-0.2,1.9-0.2c1,0,1.8,0.1,2.4,0.3c0.6,0.2,1,0.4,1.3,0.7c0.3,0.3,0.4,0.6,0.5,0.9
		c0.1,0.3,0.1,0.5,0.1,0.8c0,0.5-0.1,1.1-0.2,1.7L302.5,154z M295.1,154.2c0,0.3,0.1,0.5,0.2,0.7c0.1,0.2,0.3,0.3,0.5,0.4
		c0.2,0.1,0.4,0.2,0.6,0.2c0.2,0.1,0.5,0.1,0.7,0.1c0.6,0,1.1-0.1,1.5-0.3c0.4-0.2,0.8-0.5,1-0.8c0.3-0.3,0.5-0.8,0.6-1.2
		c0.2-0.5,0.3-1,0.4-1.5l0,0c-0.2,0.2-0.4,0.3-0.7,0.4c-0.3,0.1-0.6,0.1-0.8,0.2c-0.3,0-0.8,0.1-1.2,0.1c-0.5,0-0.9,0.1-1.3,0.2
		c-0.4,0.1-0.7,0.3-1,0.6C295.2,153.4,295.1,153.7,295.1,154.2"/>
	<path class="st0" d="M306.8,146h2.3l-0.3,1.6l0,0c0.5-0.6,1-1.1,1.7-1.5c0.7-0.3,1.4-0.5,2.2-0.5c1.1,0,2,0.3,2.5,0.8
		c0.5,0.5,0.8,1.3,0.8,2.2c0,0.2,0,0.4,0,0.7c0,0.3,0,0.5-0.1,0.7l-1.5,7.2h-2.5l1.4-7c0-0.2,0.1-0.4,0.1-0.5c0-0.2,0.1-0.3,0.1-0.5
		c0-0.1,0-0.2,0-0.4c0-0.2-0.1-0.4-0.2-0.5c-0.1-0.2-0.3-0.3-0.5-0.5c-0.2-0.1-0.6-0.2-1-0.2c-0.5,0-0.9,0.1-1.3,0.3
		c-0.4,0.2-0.7,0.5-1,0.8c-0.3,0.3-0.5,0.6-0.8,1.1c-0.2,0.4-0.4,0.9-0.5,1.3l-1.3,6.1h-2.5L306.8,146z"/>
	<path class="st0" d="M319.9,142.7h2.4l-0.7,3.4h2.2l-0.4,1.9h-2.2l-1.2,5.5c-0.1,0.2-0.1,0.5-0.2,0.7c0,0.2-0.1,0.4-0.1,0.5
		c0,0.2,0.1,0.4,0.2,0.6c0.1,0.2,0.4,0.2,0.7,0.2c0.2,0,0.4,0,0.6,0c0.2,0,0.5,0,0.7-0.1l-0.4,1.8c-0.3,0.1-0.7,0.1-1,0.2
		c-0.4,0-0.7,0.1-1,0.1c-0.5,0-0.8-0.1-1.1-0.2c-0.3-0.1-0.5-0.3-0.7-0.5c-0.2-0.2-0.3-0.4-0.3-0.7c-0.1-0.3-0.1-0.5-0.1-0.8
		c0-0.2,0-0.5,0.1-0.7c0-0.3,0.1-0.4,0.1-0.5l1.3-6.2h-2l0.4-1.9h2L319.9,142.7z"/>
	<path class="st0" d="M342.7,149.3c0-0.6-0.2-1-0.7-1.2c-0.4-0.3-1-0.4-1.6-0.4c-0.2,0-0.5,0-0.7,0.1c-0.2,0-0.4,0.1-0.6,0.2
		c-0.2,0.1-0.3,0.3-0.4,0.4c-0.1,0.2-0.2,0.4-0.2,0.7c0,0.3,0.1,0.5,0.3,0.6c0.2,0.2,0.5,0.3,0.8,0.4c0.3,0.1,0.7,0.2,1.1,0.3
		c0.4,0.1,0.8,0.2,1.2,0.4c0.3,0.1,0.7,0.3,1,0.4c0.3,0.2,0.6,0.3,0.8,0.6c0.2,0.2,0.4,0.5,0.6,0.8c0.1,0.3,0.2,0.7,0.2,1.2
		c0,0.7-0.1,1.2-0.4,1.7c-0.3,0.5-0.7,0.9-1.1,1.2c-0.5,0.3-1,0.5-1.6,0.7c-0.6,0.1-1.2,0.2-1.8,0.2c-0.7,0-1.3,0-1.8-0.2
		c-0.6-0.1-1.1-0.3-1.5-0.6c-0.4-0.3-0.8-0.7-1-1.2c-0.3-0.5-0.4-1.1-0.4-1.9l2.4,0c0,0.7,0.2,1.2,0.7,1.5c0.5,0.3,1.1,0.4,1.8,0.4
		c0.3,0,0.5,0,0.8-0.1c0.3-0.1,0.5-0.1,0.8-0.3c0.2-0.1,0.4-0.3,0.6-0.5c0.1-0.2,0.2-0.5,0.2-0.8c0-0.3-0.1-0.5-0.3-0.7
		c-0.2-0.2-0.5-0.3-0.8-0.5c-0.3-0.1-0.7-0.3-1.1-0.4c-0.4-0.1-0.8-0.2-1.2-0.4c-0.3-0.1-0.7-0.2-1-0.4c-0.3-0.2-0.6-0.3-0.8-0.6
		c-0.2-0.2-0.4-0.5-0.6-0.8c-0.1-0.3-0.2-0.7-0.2-1.1c0-0.6,0.1-1.1,0.4-1.6c0.3-0.4,0.6-0.8,1-1.1c0.4-0.3,0.9-0.5,1.5-0.6
		c0.6-0.1,1.1-0.2,1.7-0.2c0.6,0,1.2,0,1.7,0.1c0.5,0.1,1,0.3,1.4,0.6c0.4,0.3,0.7,0.6,1,1.1c0.2,0.5,0.3,1,0.3,1.7L342.7,149.3z"/>
</g>
</svg>
