<?xml version="1.0" encoding="utf-8"?>
<!-- Generator: Adobe Illustrator 24.3.0, SVG Export Plug-In . SVG Version: 6.00 Build 0)  -->
<svg version="1.1" id="Layer_1" xmlns="http://www.w3.org/2000/svg" xmlns:xlink="http://www.w3.org/1999/xlink" x="0px" y="0px"
	 viewBox="0 0 424.7 267" style="enable-background:new 0 0 424.7 267;" xml:space="preserve">
<style type="text/css">
	.st0{fill:#f1f1f1;}
</style>
<g>
	<path class="st0" d="M195.6,138.3h16.2l-8.6-13.8l-15.7,25h-7.2l19.2-30c0.8-1.2,2.2-2,3.8-2c1.5,0,2.9,0.7,3.7,1.9l19.2,30.1H219
		l-3.4-5.6h-16.4L195.6,138.3 M270,143.9v-26.1h-6.1v28.6c0,0.8,0.3,1.5,0.9,2.1c0.6,0.6,1.4,0.9,2.2,0.9h27.7l3.6-5.6H270
		 M169.4,139.2c5.9,0,10.7-4.8,10.7-10.7c0-5.9-4.8-10.7-10.7-10.7h-26.6v31.7h6.1v-26.1H169c2.8,0,5.1,2.3,5.1,5.1
		c0,2.8-2.3,5.1-5.1,5.1l-17.2,0l18.2,15.8h8.8l-12.2-10.2H169.4 M105.3,149.5h18.4c8.8,0,15.8-7.1,15.8-15.8
		c0-8.8-7-15.8-15.8-15.8h-18.4c-8.7,0-15.8,7.1-15.8,15.8C89.5,142.4,96.5,149.5,105.3,149.5 M123.3,143.9h-17.6
		c-5.7,0-10.2-4.6-10.2-10.2c0-5.7,4.6-10.2,10.2-10.2h17.6c5.7,0,10.3,4.6,10.3,10.2C133.5,139.3,128.9,143.9,123.3,143.9
		 M238.8,149.5h18.8l3.6-5.6h-21.9c-5.7,0-10.3-4.6-10.3-10.2c0-5.7,4.6-10.2,10.3-10.2h17.8l3.6-5.6h-21.9
		c-8.7,0-15.9,7.1-15.9,15.8C223,142.4,230.1,149.5,238.8,149.5 M313.3,143.9c-4.7,0-8.6-3.1-9.9-7.5h26l3.6-5.6h-29.6
		c1.2-4.3,5.2-7.5,9.9-7.5h17.9l3.6-5.6h-21.8c-8.7,0-15.8,7.1-15.8,15.8c0,8.7,7.1,15.8,15.8,15.8h18.8l3.6-5.6H313.3"/>
</g>
</svg>
