<?xml version="1.0" encoding="utf-8"?>
<!-- Generator: Adobe Illustrator 24.3.0, SVG Export Plug-In . SVG Version: 6.00 Build 0)  -->
<svg version="1.1" id="Layer_1" xmlns="http://www.w3.org/2000/svg" xmlns:xlink="http://www.w3.org/1999/xlink" x="0px" y="0px"
	 viewBox="0 0 424.7 267" style="enable-background:new 0 0 424.7 267;" xml:space="preserve">
<style type="text/css">
	.st0{fill:#f1f1f1;}
</style>
<g>
	<path class="st0" d="M297.5,127.3c-0.2,0-0.5,0-0.7,0c-7.5,0-15,0-22.5,0c-0.2,0-0.5,0-0.7,0c0-0.5,0-1,0-1.5
		c0.5,0,0.9-0.1,1.4-0.1c2.6-0.4,4-2,4.1-4.7c0-1.2,0-2.3,0-3.5c0-5.3,0-10.6,0-15.9c0-2.9-0.2-5.7-1.3-8.4
		c-0.9-2.4-2.4-4.3-5.2-4.7c-1.9-0.3-3.8,0-5.6,0.6c-2.2,0.8-4.1,2.2-5.6,4.1c1,1.4,1.6,2.9,1.9,4.6c0.3,1.5,0.4,3.1,0.4,4.6
		c0,5.9,0,11.9,0,17.8c0,0.7,0,1.5,0.2,2.2c0.5,2.1,2.1,3.3,4.5,3.4c0.2,0,0.5,0,0.8,0c0.1,0.5,0.1,1,0,1.5c-7.8,0-15.5,0-23.2,0
		c0-0.5,0-1,0-1.5c0.6,0,1.1,0,1.6-0.1c2.1-0.4,3.4-1.7,3.7-3.8c0.1-0.5,0.1-1.1,0.1-1.6c0-6.2,0-12.4,0-18.6c0-2.8-0.2-5.6-1.2-8.3
		c-0.4-1-0.8-1.9-1.5-2.7c-1.7-2.1-4-2.5-6.6-2.2c-2.2,0.3-4.1,1.2-5.9,2.5c-0.2,0.2-0.3,0.3-0.3,0.7c0.1,0.9,0.1,1.8,0.1,2.8
		c0,8.6,0,17.2,0,25.8c0,0.8,0.1,1.6,0.3,2.4c0.5,2,2.1,3.1,4.4,3.3c0.3,0,0.5,0,0.8,0c0,0.5,0,1,0,1.5c-0.3,0.1-0.5,0.1-0.8,0.1
		c-12.2,0-24.3,0-36.5,0c-0.9,0-1.5-0.3-2.1-1.1c-0.3-0.5-0.5-1.1-1.1-1.3c-0.6-0.2-0.9,0.5-1.4,0.8c-2,1.2-4.2,2-6.5,2.1
		c-5.1,0.3-10.2,0-15.1-1.8c-2-0.8-3.9-1.9-5.3-3.6c-2.9-3.5-3-10.6,1.8-14.4c2.5-2,5.3-3.1,8.4-3.8c4.8-1.2,9.7-1.4,14.6-1.4
		c1,0,2,0,3,0c0-2.9,0.2-5.7-0.7-8.5c-1.1-3.4-3.5-5.4-7-5.9c-2.7-0.4-5.5-0.2-8.1,0.5c-1.7,0.4-2,1.3-0.8,2.6
		c0.9,1,1.5,2.1,1.4,3.5c-0.1,1.9-1,3.3-2.7,4.1c-1.7,0.8-3.4,0.7-4.9-0.5c-1.5-1.2-2.1-2.8-1.8-4.7c0.3-1.8,1.5-3.1,2.9-4.2
		c2.1-1.6,4.6-2.3,7.1-2.8c0.6-0.1,1.3-0.1,1.9-0.4c1.7,0,3.4,0,5.1,0c0.1,0.2,0.2,0.1,0.3,0.1c2.1,0.1,4.2,0.4,6.2,1
		c4.9,1.4,8.8,4.1,11.1,8.8c1.2,2.6,1.8,5.3,1.9,8.2c0.2,5.1,0.1,10.2,0.1,15.2c0,0.4,0,0.8,0.1,1.3c0.2,2,1.3,3.4,3.2,4
		c1.3,0.4,2.5,0.5,3.8,0.2c2.1-0.5,3.4-1.8,3.7-4c0.1-0.5,0.1-1,0.1-1.5c0-8.4,0-16.9,0-25.3c0-0.4,0-0.8,0-1.1
		c-0.1-2.1-1.3-3.6-3.4-4.3c-0.9-0.3-1.8-0.3-2.7-0.4c0-0.5,0-1,0-1.5c0.2,0,0.4,0,0.6,0c4.7,0,9.5,0,14.2,0c0.8,0,1.3,0.3,1.8,0.8
		c0.4,0.4,0.7,0.9,1.2,1.3c1.6-1.1,3.4-2,5.4-2.4c0.4-0.1,0.8,0,1.1-0.3c1.6,0,3.2,0,4.8,0c0,0.1,0.1,0.1,0.2,0.1
		c1.6,0.1,3.2,0.3,4.8,0.6c2.8,0.6,5.4,1.6,7.6,3.4c0.3,0.3,0.6,0.6,1,0.9c0.2-0.2,0.3-0.3,0.5-0.5c1.8-1.9,3.9-3.3,6.4-4.1
		c0.7-0.2,1.5-0.2,2.3-0.5c1.6,0,3.3,0,4.9,0c0.1,0.2,0.2,0.1,0.3,0.1c2,0.1,3.9,0.4,5.8,0.9c2.4,0.6,4.6,1.6,6.5,3.2
		c3,2.5,4.2,5.9,4.3,9.7c0.1,2.9,0,5.8,0,8.7c0,3.8,0,7.5,0,11.3c0,2.8,1.4,4.5,4,5c0.7,0.1,1.4,0.2,2.1,0.2
		C297.5,126.2,297.5,126.7,297.5,127.3z M200.5,104.3c-1,0-2,0-3,0c-2,0-4.1,0-6.1,0.4c-3.6,0.8-6.3,2.7-7.5,6.3
		c-1.1,3.4-1.1,6.8-0.1,10.2c0.8,2.5,2.4,4.2,5,4.7c4.3,0.9,8.2-0.1,11.6-2.7c0.3-0.2,0.3-0.4,0.3-0.7c-0.2-5.8-0.1-11.7-0.2-17.6
		C200.6,104.9,200.7,104.6,200.5,104.3z"/>
	<path class="st0" d="M187.7,180.9c-0.6-0.3-1.3-0.2-1.9-0.2c-3.1-0.3-6.2-0.9-9.1-2.2c-7.9-3.6-7.3-13.6-1.9-17.7
		c2.5-1.9,5.4-3,8.5-3.7c4.5-1,9-1.3,13.6-1.3c1.2,0,2.3,0,3.5,0c0-0.1,0.1-0.1,0.1-0.1c0-2.7,0.2-5.4-0.5-8c-1.1-3.8-3.8-6-7.7-6.4
		c-2.4-0.2-4.8-0.1-7.1,0.5c-2.3,0.5-2.6,1.3-1,3c2.3,2.6,1,6.9-2.4,7.7c-2,0.4-3.7-0.1-4.9-1.7c-1.2-1.6-1.3-3.5-0.4-5.2
		c1-1.9,2.7-3.2,4.7-4.1c2.7-1.2,5.6-1.7,8.6-1.8c3.9-0.1,7.7,0.3,11.4,1.6c6.4,2.3,9.9,6.9,11.1,13.4c0.3,1.9,0.4,3.9,0.5,5.8
		c0,4.2,0,8.5,0,12.7c0,0.7,0,1.3,0.2,2c0.6,2.1,2.2,3,4.2,3.4c1.2,0.2,2.4,0,3.6-0.4c1.8-0.7,2.7-2.1,2.9-4c0-0.4,0-0.7,0-1.1
		c0-8.5,0-17,0-25.5c0-0.5,0-1-0.1-1.4c-0.4-2.6-2.2-4-5-4.1c-0.3,0-0.6,0-1,0c-0.1-0.5-0.1-1,0-1.5c0.2-0.2,0.5-0.1,0.7-0.1
		c4.7,0,9.4,0,14.1,0c0.8,0,1.4,0.3,2,0.9c0.4,0.4,0.7,0.8,1.2,1.2c1.2-0.8,2.6-1.5,4-2c2-0.7,4.1-0.7,6.1-0.7
		c3.3,0.1,6.5,0.5,9.6,1.8c1,0.4,1.9,0.8,2.7,1.4c0.8,0.5,1.6,1.2,2.2,1.8c0.5-0.4,0.9-0.8,1.4-1.2c2.6-2.5,5.7-3.7,9.3-3.8
		c3.9-0.1,7.7,0.2,11.4,1.5c3.3,1.1,6,3,7.6,6.2c1,2,1.4,4.1,1.4,6.2c0,6.5,0,13,0,19.6c0,0.6,0,1.2,0.2,1.7c0.5,2.1,2,3.3,4.3,3.6
		c0.5,0.1,1.1,0.1,1.6,0.1c0,0.5,0,1,0,1.5c-0.1,0-0.3,0-0.4,0c-7.7,0-15.3,0-23,0c-0.2,0-0.3,0.1-0.5-0.1c0-0.5,0-0.9,0-1.4
		c0.2,0,0.4,0,0.6,0c2.6-0.2,4.1-1.3,4.6-3.5c0.1-0.6,0.2-1.2,0.2-1.8c0-3.6,0-7.3,0-10.9c0-3.6,0.2-7.3-0.1-10.9
		c-0.2-2.3-0.6-4.6-1.6-6.6c-1-1.9-2.4-3.3-4.6-3.6c-4.6-0.5-8.3,1.2-11.3,4.7c0.7,1,1.2,2,1.5,3c0.7,2,0.8,4.1,0.8,6.2
		c0,5.8,0,11.7,0,17.5c0,0.5,0,1,0,1.5c0.2,2.4,1.7,4,4.1,4.3c0.4,0.1,0.9,0.1,1.3,0.2c0,0.5,0,1,0,1.5c-7.8,0-15.5,0-23.2,0
		c0-0.5,0-1,0-1.5c0.5-0.1,0.9-0.1,1.4-0.2c2.1-0.3,3.4-1.5,3.9-3.6c0.2-0.7,0.2-1.4,0.2-2.1c0-5.3,0-10.6,0-15.9
		c0-2.1,0-4.2-0.2-6.3c-0.2-2.1-0.6-4.1-1.6-6c-1.4-2.6-3.8-3.8-6.8-3.5c-2.1,0.2-4.1,1-5.9,2.1c-0.7,0.4-1.1,0.9-0.9,1.7
		c0.1,0.4,0,0.8,0,1.2c0,8.8,0,17.7,0,26.5c0,0.3,0,0.6,0,0.9c0.2,2.7,1.4,4.3,3.8,4.8c0.5,0.1,1.1,0.1,1.6,0.2c0,0.5,0,1,0,1.5
		c-0.2,0-0.3,0-0.4,0c-12.4,0-24.7,0-37.1,0c-0.7,0-1.2-0.3-1.6-0.8c-0.3-0.4-0.6-0.8-0.9-1.3c-0.3-0.3-0.5-0.4-0.9-0.1
		c-1.6,1.2-3.3,2-5.2,2.4c-0.7,0.2-1.5,0.3-2.2,0.4C191.3,180.9,189.5,180.9,187.7,180.9z M200.6,157.4c-1.3,0-2.5,0-3.7,0
		c-1.9,0-3.8,0.1-5.7,0.5c-3.5,0.8-6.1,2.8-7.3,6.3c-1.1,3.3-1.1,6.6-0.1,9.9c0.8,2.7,2.5,4.6,5.3,5.1c4.2,0.7,8-0.2,11.4-2.8
		c0.3-0.2,0.3-0.4,0.3-0.7c-0.2-5.9-0.1-11.7-0.2-17.6C200.6,157.9,200.6,157.7,200.6,157.4z"/>
	<path class="st0" d="M124.5,140.3c0.2,0,0.5,0,0.7,0c8.8,0,17.6,0,26.4,0c3.8,0,7.5,0.5,11.1,2.1c3.6,1.6,6.6,4,8.3,7.6
		c2.5,5.3,1.8,12.6-5.6,16.6c-2.7,1.4-5.6,2.1-8.6,2.5c-4.3,0.5-8.7,0.3-13,0.4c-0.3,0-0.5,0-0.9,0c0.1,1.8-0.2,3.6,0.2,5.3
		c0.4,2.1,2,3.4,4.3,3.7c0.5,0.1,1.1,0.1,1.6,0.2c0,0.5,0,1,0,1.4c-0.1,0.1-0.3,0.1-0.5,0.1c-7.9,0-15.8,0-23.6,0
		c-0.1,0-0.3,0-0.4,0c0-0.5,0-1,0-1.5c0.6,0,1.1-0.1,1.7-0.1c2.3-0.3,3.8-1.6,4.3-3.6c0.2-0.7,0.2-1.4,0.2-2.1c0-6.9,0-13.8,0-20.8
		c0-1.8,0-3.6,0-5.5c0-2.3-1.2-3.8-3.4-4.4c-0.9-0.3-1.8-0.4-2.8-0.3C124.5,141.4,124.5,140.8,124.5,140.3z M143,167.9c3,0,6,0,9,0
		c0.7,0,1.4-0.2,2-0.4c2.9-1,4.5-3.1,5.3-6c0.8-2.9,0.8-5.9,0.6-9c-0.2-2-0.6-4-1.4-5.9c-1.2-2.6-3.2-4.3-6.1-4.6
		c-3.1-0.3-6.2,0-9.3-0.1C143,150.6,143,159.2,143,167.9z"/>
	<path class="st0" d="M124.5,87.4c0.1,0,0.2,0,0.3,0c9.3,0,18.7,0,28,0.1c4.3,0.1,8.4,0.9,12.1,3.2c3,1.9,5.5,4.3,6.6,7.8
		c2,6.2,0,12.5-7.3,15.8c-3,1.4-6.3,1.9-9.6,2.1c-3.7,0.3-7.4,0.1-11.2,0.1c-0.2,0-0.3,0-0.6,0c0.1,1.9-0.2,3.8,0.2,5.6
		c0.5,2.1,2,3.1,4,3.4c0.6,0.1,1.2,0.1,1.8,0.2c0,0.5,0,1,0,1.5c-0.2,0.1-0.5,0.1-0.7,0.1c-7.7,0-15.4,0-23.1,0c-0.2,0-0.5,0-0.7,0
		c0-0.5,0-1.1,0-1.6c0.7,0,1.3,0,2-0.1c2-0.4,3.5-1.4,4-3.6c0.2-0.7,0.2-1.4,0.2-2.1c0-6.9,0-13.8,0-20.8c0-1.8,0-3.6,0-5.5
		c0-2.3-1.2-3.8-3.4-4.4c-0.9-0.3-1.8-0.3-2.7-0.3C124.5,88.4,124.5,87.9,124.5,87.4z M143,114.9c2.8,0,5.5,0.1,8.3,0
		c4.3-0.2,6.9-2.3,8-6.4c1.1-4.2,1-8.5-0.1-12.8c-1.1-4.3-3.8-7-9-6.8c-1.9,0-3.8,0-5.8,0c-0.5,0-0.9,0-1.4,0
		C143,97.6,143,106.2,143,114.9z"/>
</g>
</svg>
