<?xml version="1.0" encoding="utf-8"?>
<!-- Generator: Adobe Illustrator 24.3.0, SVG Export Plug-In . SVG Version: 6.00 Build 0)  -->
<svg version="1.1" id="Layer_1" xmlns="http://www.w3.org/2000/svg" xmlns:xlink="http://www.w3.org/1999/xlink" x="0px" y="0px"
	 viewBox="0 0 424.7 267" style="enable-background:new 0 0 424.7 267;" xml:space="preserve">
<style type="text/css">
	.st0{fill:#f1f1f1;}
</style>
<g>
	<g>
		<path class="st0" d="M161.4,134c0,3.9-1.8,7.5-4,9.7c-0.8,0.7-2.1,1.8-3.7,2.5v0.1c0.8,0.5,1.9,1,2.9,1.4c0.9,0.4,1.8,0.7,2.6,1
			c0.4,0.2,0.9,0.3,1.2,0.4l0,0.1c-0.5,0.5-0.9,0.9-1.4,1.4h-0.1c-0.9-0.3-1.9-0.7-3.5-1.4c-1.2-0.6-2.7-1.5-3.7-2
			c-0.3,0.1-0.8,0.2-1.4,0.3c-0.6,0.1-1.3,0.1-2,0.1c-7.3,0-12.8-6-12.8-13.1c0-7.5,5.7-13.4,13.4-13.4
			C156,120.9,161.4,126.7,161.4,134L161.4,134z M159.3,134.1c0-6.5-4.6-11.6-11-11.6c-6.2,0-10.8,5.3-10.8,11.6
			c0,6.1,4.6,11.6,10.9,11.6C154.8,145.7,159.3,140.5,159.3,134.1L159.3,134.1z"/>
		<path class="st0" d="M164.8,132.2v-10.9v-0.1h0.9h1v0.1v10.9v4.1c0,2.9,0.4,4.9,1.4,6.5c1.2,1.9,3.6,2.9,5.9,2.9
			c2.5,0,4.6-0.7,6.1-2.6c1.2-1.6,1.8-3.9,1.8-7.2v-3.7v-10.9v-0.1h0.9h0.9v0.1v10.9v3.9c0,3.7-0.7,6.4-2.4,8.3c-1.7,2-4.3,3-7.3,3
			c-3,0-5.6-1.1-7.2-3.4c-1.3-1.8-1.9-3.8-1.9-7.6V132.2z"/>
		<path class="st0" d="M190.5,135.5V147v0.1h-1h-0.9V147v-11.5v-3.3v-10.8v-0.1h0.9h1v0.1v10.8V135.5z"/>
		<path class="st0" d="M214.7,147.4h-0.2c-7-8.8-11-13.9-13.4-16.9c-1.4-1.8-2.2-2.8-3.7-4.8h0v9.8V147v0.1h-0.9h-0.9V147v-11.5
			v-14.6h0.2c7.3,9.2,11.3,14.4,13.7,17.3c1.3,1.6,2.2,2.7,3.3,4.4h0.1v-10.4v-10.9v-0.1h0.9h0.9v0.1v10.9L214.7,147.4L214.7,147.4z
			"/>
		<path class="st0" d="M225.5,122.9h-5.9h-2h-0.2v-1.7h7.9h2.2h7.9v1.7h-0.2h-2.2h-5.8v12.6V147v0.1h-0.9h-1V147v-11.5L225.5,122.9
			L225.5,122.9z"/>
		<path class="st0" d="M261.3,134c0,7.3-5.4,13.4-13.2,13.4c-7.2,0-12.8-6-12.8-13.1c0-7.6,5.7-13.4,13.4-13.4
			C255.9,120.9,261.3,126.7,261.3,134L261.3,134z M259.2,134.1c0-6.5-4.7-11.6-11-11.6c-6.1,0-10.8,5.1-10.8,11.6
			c0,6.2,4.8,11.6,10.9,11.6C254.6,145.7,259.2,140.6,259.2,134.1L259.2,134.1L259.2,134.1z"/>
	</g>
	<g>
		<path class="st0" d="M268.5,143.3c-0.8,1.9-1.4,3.4-1.5,3.6v0.1h-3h-3.2V147c0.1-0.2,0.8-1.7,5.1-11.5l6.5-14.7h0.9l6.4,14.7
			c4.3,9.8,4.9,11.3,5,11.5v0.1h-3.2h-3.7V147c-0.1-0.2-0.7-1.7-1.4-3.6H268.5z M274.5,138.4L274.5,138.4c-1.3-3.4-1.8-4.9-2-5.8h0
			c-0.2,0.9-0.8,2.4-2.1,5.7v0.1H274.5z"/>
		<path class="st0" d="M309,147.4h-0.8c-5.4-4.5-8.6-7.4-10.8-9.4c-1.7-1.6-2.9-2.7-5-4.8h-0.1c0.1,1.4,0.1,2.2,0.1,3V147v0.1h-3
			h-2.7V147v-11.5V121h0.8c5.6,4.8,8.9,7.6,11.1,9.7c1.5,1.4,3,2.8,4.7,4.5h0.1c0-1.7,0-2.7,0-3.7v-10.2v-0.1h3h2.6v0.1v10.9
			L309,147.4L309,147.4z"/>
		<path class="st0" d="M334.7,133.6c0,4.9-2.1,8.8-5.9,11.3c-2.3,1.5-5.3,2.3-8.8,2.3c-1.7,0-3.2,0-4.3-0.1c-0.7,0-1.7-0.1-2.4-0.2
			v0v-11.4v-3.3v-10.5v-0.3c0.7-0.1,1.5-0.2,3-0.2c1.6-0.1,2.8-0.1,4.1-0.1c3.9,0,6.8,0.8,9,2.1
			C333.5,125.6,334.7,129.8,334.7,133.6L334.7,133.6z M328.4,133.8c0-2.4-0.8-4.5-2.4-5.8c-1.2-0.9-2.7-1.4-4.7-1.4
			c-0.6,0-1.3,0.1-1.7,0.1v14.8c0,0.1,0,0.1,0.1,0.1c0.5,0.1,1,0.1,1.5,0.1c1.5,0,2.9-0.4,4.2-1.3
			C327.1,139,328.4,136.9,328.4,133.8L328.4,133.8L328.4,133.8z"/>
		<path class="st0" d="M341.2,143.3c-0.8,1.9-1.4,3.4-1.5,3.6v0.1h-3h-3.2V147c0.1-0.2,0.8-1.7,5.1-11.5l6.5-14.7h0.9l6.4,14.7
			c4.3,9.8,4.9,11.3,5,11.5v0.1h-3.2h-3.7V147c-0.1-0.2-0.7-1.7-1.4-3.6H341.2z M347.2,138.4L347.2,138.4c-1.3-3.4-1.8-4.9-2-5.8h0
			c-0.2,0.9-0.8,2.4-2.1,5.7v0.1H347.2z"/>
		<path class="st0" d="M359.4,132.2v-10.8v-0.1c0.6-0.1,1.5-0.1,2.3-0.2c0.7,0,2.3-0.1,3.2-0.1c2.1,0,3.8,0.2,5.3,0.6
			c2.2,0.6,5.3,2.5,5.3,7.3c0,2.8-1.4,4.9-2.4,5.7c-0.6,0.5-1.3,1-1.7,1.2v0.1c0.2,0.3,0.7,1,5.6,8.2c0.7,1,1.7,2.5,1.9,2.8v0.1
			h-3.4h-2.4h-1c-1.9-3-4-6.5-6.2-9.9h-0.6v1.6v8.2v0.1h-2.9h-2.9V147v-11.5V132.2z M369.5,129.4c0-2-1.2-3.2-3.2-3.2
			c-0.6,0-0.9,0-1.2,0.1v6.6c0.2,0,0.6,0,0.9,0c0.9,0,1.6-0.3,2.2-0.7C368.8,131.8,369.5,130.9,369.5,129.4L369.5,129.4z"/>
	</g>
	<g>
		<path class="st0" d="M114.8,109.1H50c-2.2,0-4.1,1.8-4.1,4.1v40.6c0,2.2,1.8,4.1,4.1,4.1h64.9c2.2,0,4.1-1.8,4.1-4.1v-40.6
			C118.9,111,117.1,109.1,114.8,109.1z M117.3,153.8c0,1.3-1.1,2.4-2.4,2.4H50c-1.3,0-2.4-1.1-2.4-2.4v-40.6c0-1.3,1.1-2.4,2.4-2.4
			h64.9c1.3,0,2.4,1.1,2.4,2.4V153.8z"/>
	</g>
	<path class="st0" d="M98.8,144.8l9,3.1c0.4,0.1,0.7-0.1,0.5-0.6L99,119.7c-0.1-0.4-0.4-0.4-0.5,0l-9.3,27.6
		c-0.1,0.4,0.1,0.7,0.5,0.6L98.8,144.8z"/>
	<g>
		<polygon class="st0" points="58.3,134.1 59.7,135.6 71.8,135.6 74.3,133.1 72.6,131.5 60.9,131.5 		"/>
		<path class="st0" d="M72.7,137.2v10l2.3,4.3c0.9-0.4,1.5-1.2,1.7-2.2V135l-0.9-0.9L72.7,137.2z"/>
		<path class="st0" d="M70.9,147.7H59.7l-3.2,3.2c0.4,0.4,1,0.8,1.7,0.9h15l-0.1-0.2L70.9,147.7z"/>
		<path class="st0" d="M75.5,115.2H58.1c-1.1,0.3-1.8,0.9-2.3,1.8l3.8,2.3H74L75.5,115.2z"/>
		<polygon class="st0" points="55.6,119 55.6,132 56.7,133.1 59.7,130 59.7,121.5 		"/>
	</g>
</g>
</svg>
