<?xml version="1.0" encoding="utf-8"?>
<!-- Generator: Adobe Illustrator 24.3.0, SVG Export Plug-In . SVG Version: 6.00 Build 0)  -->
<svg version="1.1" id="Layer_1" xmlns="http://www.w3.org/2000/svg" xmlns:xlink="http://www.w3.org/1999/xlink" x="0px" y="0px"
	 viewBox="0 0 424.7 267" style="enable-background:new 0 0 424.7 267;" xml:space="preserve">
<style type="text/css">
	.st0{fill:#f1f1f1;}
</style>
<path class="st0" d="M77.6,132.5c1.5,0.4,2.4,0.7,3.6,2.9c4.4,8,8.7,16.8,13,25.5c0.5,0.5,1.1,0.5,2.1,0.5c0.9,0,1.5-0.1,2.1-0.5
	c2-3.8,7.4-14,9.7-18c2.7,4.9,7.3,13.9,9.1,18c0.5,0.5,1.1,0.5,2,0.5c0.9,0,1.5-0.1,2.1-0.5c3.7-8.2,7.8-16.6,11.9-24.4
	c1.4-2.8,2.1-3.6,5-4.1l1.3-0.2c0.7-0.7,0.5-2.4-0.3-2.7c-2,0.2-4.3,0.2-6.8,0.2c-2.2,0-4.3-0.1-7.3-0.2c-0.9,0.3-0.9,2.1-0.3,2.7
	l1.5,0.3c1.5,0.3,2.2,0.7,2.2,1.1c0,0.5-0.3,1.6-0.8,3c-1.4,3.6-2.8,7.3-5,11.8c-2-3.7-4.4-8.7-6-12.4c-0.5-1.3-0.7-1.8-0.7-2.4
	c0-0.4,1.2-0.8,3.3-1.1l1.3-0.2c0.6-0.3,0.7-2.6-0.3-2.7c-5.7,0.2-10.1,0.2-15.7,0.2h-18c-3.7,0-6.6-0.1-10.2-0.2
	c-0.9,0.4-0.9,2.1-0.3,2.7L77.6,132.5z M97.7,132.5c1.6,0,3,0.1,4.3,0.3c1.8,0.3,3.3,2.8,3.3,4c0,0.6,0,1.3-0.3,2.3
	c-0.5,1.5-3.4,7.1-4.7,9.1c-1.5-2.5-5.1-9.4-6.3-12.1c-0.5-1.1-0.8-2.1-0.8-2.5C93.2,132.8,94.9,132.5,97.7,132.5z M151.7,161.5
	c5.3,0,11.9-2.2,15.6-8.7c0-1.3-1.3-1.9-2.3-1.8c-2.4,3.6-5.8,4-8.3,4c-8.3,0-12.5-5.6-12.5-11.3c0-1.2,0.2-1.4,2.2-1.4h17
	c2.8,0,3.2-1.1,3.2-2.5c0-5.9-5-11.1-14.2-11.1c-11.1,0-19.2,7.5-19.2,17.2C133.3,154.2,139.8,161.5,151.7,161.5z M151.9,132.2
	c3,0,4.7,1.7,4.7,4.2c0,0.8-0.2,1.6-0.6,1.8c-1,0.5-2.4,0.7-3.6,0.7H149c-2.8,0-4.1-0.1-4.1-1.1
	C144.9,135.2,148.1,132.2,151.9,132.2z M169.3,132.5c1.5,0.4,2.4,0.7,3.6,2.9c4.4,8,8.7,16.8,13,25.5c0.5,0.5,1.1,0.5,2.1,0.5
	c0.9,0,1.5-0.1,2.1-0.5c2.1-3.8,7.4-14,9.7-18c2.7,4.9,7.3,13.9,9.1,18c0.5,0.5,1.1,0.5,2,0.5c0.9,0,1.5-0.1,2.1-0.5
	c3.7-8.2,7.8-16.6,11.9-24.4c1.4-2.8,2-3.6,5-4.1l1.3-0.2c0.7-0.7,0.5-2.4-0.3-2.7c-2,0.2-4.3,0.2-6.8,0.2c-2.2,0-4.3-0.1-7.3-0.2
	c-0.9,0.3-0.9,2.1-0.3,2.7l1.5,0.3c1.5,0.3,2.2,0.7,2.2,1.1c0,0.5-0.3,1.6-0.8,3c-1.4,3.6-2.8,7.3-5,11.8c-2-3.7-4.4-8.7-6-12.4
	c-0.5-1.3-0.7-1.8-0.7-2.4c0-0.4,1.2-0.8,3.3-1.1l1.3-0.2c0.6-0.3,0.7-2.6-0.3-2.7c-5.7,0.2-10.1,0.2-15.7,0.2h-18
	c-3.7,0-6.6-0.1-10.2-0.2c-0.9,0.4-0.9,2.1-0.3,2.7L169.3,132.5z M189.5,132.5c1.6,0,3,0.1,4.3,0.3c1.8,0.3,3.3,2.8,3.3,4
	c0,0.6,0,1.3-0.3,2.3c-0.5,1.5-3.4,7.1-4.7,9.1c-1.5-2.5-5.1-9.4-6.3-12.1c-0.5-1.1-0.8-2.1-0.8-2.5
	C185,132.8,186.6,132.5,189.5,132.5z M245.4,161.5c10.9,0,20.4-5.3,20.4-16.5c0-10.8-9.4-16.4-19.9-16.4c-10.5,0-20.5,6.1-20.4,17
	C225.6,156.3,234.8,161.5,245.4,161.5z M245.4,132.2c5,0,7.5,6.4,7.6,13.9c0.1,6.9-1.6,11.9-6.7,11.9c-5.1,0-8.1-5.9-8.1-14
	C238.3,135.6,241.5,132.2,245.4,132.2z M280.9,135.2c0.5,0,1.3,0.1,3.4,1.5c1.1,0.9,2.2,1.4,3.4,1.4c2.8,0,5.7-1.5,5.7-5
	c0-2.9-2.5-4.5-4.9-4.5c-3.7,0-6.3,2.5-8.7,3.8c-0.7-0.1-0.9-0.4-0.9-0.9c0-0.7,0.2-1.8,0.3-3.3c-0.3-0.5-0.9-0.7-1.6-0.7
	c-2.8,1.6-8.9,3.6-13,4.6c-0.6,0.5-0.6,1.8,0,2.3l1.3,0.7c1.7,0.9,1.7,1.8,1.7,4.9v11.6c0,5.4-0.3,6.1-3.3,6.3l-1.7,0.1
	c-0.7,0.5-0.7,2.2,0.1,2.7c2.9-0.2,6.8-0.2,10.5-0.2c4.2,0,7.7,0.1,12,0.2c0.8-0.5,0.8-2.2,0.1-2.7l-2.8-0.2
	c-2.9-0.2-3.3-0.9-3.3-6.2v-11.8C279.2,136.9,279.7,135.2,280.9,135.2z M315.7,157.7l-1.1,0.2c-0.7,0.7-0.5,2.3,0.3,2.7
	c2.5-0.1,5.7-0.2,10.9-0.2c5.2,0,8.4,0.1,11.2,0.2c0.9-0.3,1.1-2.1,0.3-2.7l-1.3-0.2c-2.3-0.4-4-0.8-5.2-1.8
	c-2.2-1.8-10.1-12.2-11.6-14.7c-0.5-0.6-0.7-1.1-0.7-1.3c0-0.2,0.1-0.5,0.5-1c1.3-1.1,2.6-2.2,6-4.4c2.4-1.6,4.3-2.4,6-2.7l2.8-0.5
	c0.6-0.6,0.5-2.3-0.3-2.7c-5.2,0.7-12.6,1.1-16.8,1.1h-2.1c-0.9,0.3-1,2-0.2,2.7l2.2,0.3c0.8,0.1,1.7,0.4,1.7,0.7
	c0,0.5-0.4,1.3-2.1,3l-3.7,3.8c-1.8,1.8-3.6,2.1-5.2,2.1c-1,0-1.3-0.2-1.3-1.1v-24.1c0-4.8,0.1-8.1,0.3-11.2c-0.3-0.4-1-0.5-1.5-0.5
	c-4.5,1.7-9.9,3.5-13.6,4.3c-0.6,0.5-0.6,1.9,0,2.3l1.5,0.8c1.8,0.9,1.8,1.8,1.8,4.8v33.8c0,5.4-0.3,6-3.6,6.3l-1.7,0.1
	c-0.7,0.5-0.7,2.2,0.1,2.7c3.1-0.1,6.8-0.2,10.8-0.2c4.1,0,7.8,0.1,10.7,0.2c0.8-0.5,0.8-2.2,0.1-2.7l-1.4-0.1
	c-3.1-0.3-3.5-0.9-3.5-6.3V147c0-1.5,0.5-1.8,1.1-1.8c0.9,0,1.6,0.3,2.2,1.1l6.4,8.3c0.7,0.9,1.5,2.1,1.5,2.5
	C317.1,157.4,316.6,157.6,315.7,157.7z M344.5,161.4c-2.5,0-4.6-2.1-4.6-4.6c0-2.5,2.1-4.6,4.6-4.6c2.5,0,4.6,2.1,4.6,4.6
	C349.1,159.3,347.1,161.4,344.5,161.4z M344.5,153.1c-2.1,0-3.7,1.7-3.7,3.7c0,2.1,1.7,3.7,3.7,3.7c2.1,0,3.7-1.7,3.7-3.7
	C348.2,154.7,346.6,153.1,344.5,153.1z M345.3,159.1l-0.9-1.7h-0.7v1.7h-1v-4.7h2.2c1,0,1.6,0.6,1.6,1.5c0,0.8-0.5,1.3-1,1.4
	l1.1,1.8H345.3L345.3,159.1z M345.4,155.9c0-0.4-0.3-0.6-0.7-0.6h-1.1v1.3h1.1C345.1,156.5,345.4,156.3,345.4,155.9z"/>
</svg>
